<svg xmlns="http://www.w3.org/2000/svg" width="311" height="261" viewBox="0 0 311 261"><g transform="translate(9.001 -44.083)"><path d="M-12363.812-22418.705c15.021-1.285,35.71-3.107,59.061-5.326,18.493-1.758,38.873-3.455,58.874-8.023,20.681-4.725,40.153-14.162,58.566-21.434,25.65-10.129,47-29.752,59.084-41.621" transform="translate(12416 22695.084)" fill="none" stroke="#95c11f" stroke-width="2"/><path d="M-12363.812-22418.705" transform="translate(12416 22695.084)" fill="none" stroke="#f5bb00" stroke-width="2"/><text transform="translate(10.999 283.083)" fill="#104e51" font-size="12" font-family="DINNextRoundedLTPro-Regular, DINNextRoundedLTPro-Regular ☞"><tspan x="-6.504" y="0">0</tspan></text><text transform="translate(10.999 260.082)" fill="#104e51" font-size="12" font-family="DINNextRoundedLTPro-Regular, DINNextRoundedLTPro-Regular ☞"><tspan x="-13.008" y="0">50</tspan></text><text transform="translate(10.999 238.084)" fill="#104e51" font-size="12" font-family="DINNextRoundedLTPro-Regular, DINNextRoundedLTPro-Regular ☞"><tspan x="-19.512" y="0">100</tspan></text><text transform="translate(10.999 215.083)" fill="#104e51" font-size="12" font-family="DINNextRoundedLTPro-Regular, DINNextRoundedLTPro-Regular ☞"><tspan x="-19.512" y="0">150</tspan></text><text transform="translate(10.999 192.084)" fill="#104e51" font-size="12" font-family="DINNextRoundedLTPro-Regular, DINNextRoundedLTPro-Regular ☞"><tspan x="-19.512" y="0">200</tspan></text><text transform="translate(10.999 170.083)" fill="#104e51" font-size="12" font-family="DINNextRoundedLTPro-Regular, DINNextRoundedLTPro-Regular ☞"><tspan x="-19.512" y="0">250</tspan></text><text transform="translate(10.999 147.082)" fill="#104e51" font-size="12" font-family="DINNextRoundedLTPro-Regular, DINNextRoundedLTPro-Regular ☞"><tspan x="-19.512" y="0">300</tspan></text><text transform="translate(10.999 124.084)" fill="#104e51" font-size="12" font-family="DINNextRoundedLTPro-Regular, DINNextRoundedLTPro-Regular ☞"><tspan x="-19.512" y="0">350</tspan></text><text transform="translate(10.999 56.083)" fill="#104e51" font-size="12" font-family="DINNextRoundedLTPro-Regular, DINNextRoundedLTPro-Regular ☞"><tspan x="-19.512" y="0">500</tspan></text><text transform="translate(10.999 101.083)" fill="#104e51" font-size="12" font-family="DINNextRoundedLTPro-Regular, DINNextRoundedLTPro-Regular ☞"><tspan x="-19.512" y="0">400</tspan></text><text transform="translate(10.999 79.084)" fill="#104e51" font-size="12" font-family="DINNextRoundedLTPro-Regular, DINNextRoundedLTPro-Regular ☞"><tspan x="-19.512" y="0">450</tspan></text><text transform="translate(52 302.083)" fill="#104e51" font-size="12" font-family="DINNextRoundedLTPro-Regular, DINNextRoundedLTPro-Regular ☞"><tspan x="-13.008" y="0">2022</tspan></text><text transform="translate(111 302.083)" fill="#104e51" font-size="12" font-family="DINNextRoundedLTPro-Regular, DINNextRoundedLTPro-Regular ☞"><tspan x="-13.008" y="0">2023</tspan></text><text transform="translate(170 302.083)" fill="#104e51" font-size="12" font-family="DINNextRoundedLTPro-Regular, DINNextRoundedLTPro-Regular ☞"><tspan x="-13.008" y="0">2024</tspan></text><text transform="translate(229 302.083)" fill="#104e51" font-size="12" font-family="DINNextRoundedLTPro-Regular, DINNextRoundedLTPro-Regular ☞"><tspan x="-13.008" y="0">2025</tspan></text><text transform="translate(288 302.083)" fill="#104e51" font-size="12" font-family="DINNextRoundedLTPro-Regular, DINNextRoundedLTPro-Regular ☞"><tspan x="-13.008" y="0">2026</tspan></text><line y1="227.512" transform="translate(52.266 53.283)" fill="none" stroke="#e6e6e6" stroke-width="1"/><line y1="227.512" transform="translate(111 53.283)" fill="none" stroke="#e6e6e6" stroke-width="1"/><line y1="12.212" transform="translate(52.266 268.584)" fill="none" stroke="#00b4cd" stroke-linecap="round" stroke-width="3"/><line y1="45.212" transform="translate(111 235.584)" fill="none" stroke="#00b4cd" stroke-linecap="round" stroke-width="3"/><line y1="227.512" transform="translate(170 53.283)" fill="none" stroke="#e6e6e6" stroke-width="1"/><line y1="227.512" transform="translate(229 53.283)" fill="none" stroke="#e6e6e6" stroke-width="1"/><line y1="227.512" transform="translate(288 53.283)" fill="none" stroke="#e6e6e6" stroke-width="1"/><g transform="translate(107 267.185)" fill="#95c11f" stroke="#fafafa" stroke-width="1"><circle cx="4" cy="4" r="4" stroke="none"/><circle cx="4" cy="4" r="4.5" fill="none"/></g><g transform="translate(48.266 272.186)" fill="#95c11f" stroke="#fafafa" stroke-width="1"><circle cx="4" cy="4" r="4" stroke="none"/><circle cx="4" cy="4" r="4.5" fill="none"/></g><line y1="94.212" transform="translate(169.734 186.584)" fill="none" stroke="#00b4cd" stroke-linecap="round" stroke-width="3"/><line y1="153.212" transform="translate(228.734 127.584)" fill="none" stroke="#00b4cd" stroke-linecap="round" stroke-width="3"/><line y1="204.212" transform="translate(287.734 76.584)" fill="none" stroke="#00b4cd" stroke-linecap="round" stroke-width="3"/><g transform="translate(165.734 259.241)" fill="#95c11f" stroke="#fafafa" stroke-width="1"><circle cx="4" cy="4" r="4" stroke="none"/><circle cx="4" cy="4" r="4.5" fill="none"/></g><g transform="translate(224.734 237.134)" fill="#95c11f" stroke="#fafafa" stroke-width="1"><circle cx="4" cy="4" r="4" stroke="none"/><circle cx="4" cy="4" r="4.5" fill="none"/></g><g transform="translate(283.734 195.685)" fill="#95c11f" stroke="#fafafa" stroke-width="1"><circle cx="4" cy="4" r="4" stroke="none"/><circle cx="4" cy="4" r="4.5" fill="none"/></g></g></svg>