<svg xmlns="http://www.w3.org/2000/svg" xmlns:xlink="http://www.w3.org/1999/xlink" width="167.374" height="144" viewBox="0 0 167.374 144"><defs><linearGradient id="a" x1="0.389" y1="0.878" x2="0.876" y2="-0.042" gradientUnits="objectBoundingBox"><stop offset="0" stop-color="#fff"/><stop offset="0.31" stop-color="#aab6bd"/><stop offset="1" stop-color="#004141"/></linearGradient><linearGradient id="b" x1="0.806" y1="0.676" x2="0.029" y2="-0.097" gradientUnits="objectBoundingBox"><stop offset="0" stop-color="#fff"/><stop offset="0.26" stop-color="#a7afbf"/><stop offset="1" stop-color="#001a30"/></linearGradient><radialGradient id="c" cx="0.118" cy="0.228" r="1.576" gradientTransform="translate(0.059) scale(0.502 1)" gradientUnits="objectBoundingBox"><stop offset="0.07" stop-color="#fff"/><stop offset="0.16" stop-color="#f8faf9"/><stop offset="0.27" stop-color="#e7efeb"/><stop offset="0.41" stop-color="#cbdcd3"/><stop offset="0.55" stop-color="#a3c1b2"/><stop offset="0.71" stop-color="#709f88"/><stop offset="0.87" stop-color="#337655"/><stop offset="1" stop-color="#00542a"/></radialGradient><radialGradient id="d" cx="0.655" cy="0.071" r="0.986" gradientTransform="translate(-0.221) scale(1.337 1)" gradientUnits="objectBoundingBox"><stop offset="0" stop-color="#fff"/><stop offset="0.26" stop-color="#fcfdfc"/><stop offset="0.4" stop-color="#f4f6f5"/><stop offset="0.51" stop-color="#e7ebe8"/><stop offset="0.6" stop-color="#d4dbd6"/><stop offset="0.68" stop-color="#bbc6bf"/><stop offset="0.76" stop-color="#9cada2"/><stop offset="0.83" stop-color="#778f80"/><stop offset="0.9" stop-color="#4d6c58"/><stop offset="0.96" stop-color="#1e452c"/><stop offset="1" stop-color="#002c10"/></radialGradient></defs><g transform="translate(0 107.256)"><path d="M28.074,282.9a4.715,4.715,0,0,0-4.8-4.6H1.6A1.6,1.6,0,0,0,0,279.9v18.8a1.6,1.6,0,0,0,1.6,1.6H23.276a4.715,4.715,0,0,0,4.8-4.6V282.894Zm-3.209,11.209a3.083,3.083,0,0,1-3.193,2.989H3.209V281.509H21.672a3.083,3.083,0,0,1,3.193,2.989v9.6Z" transform="translate(0 -278.3)" fill="#fff"/><path d="M381.169,278.31a2.181,2.181,0,0,0-1.232.589l-11.322,11.083-11.4-11.185a1.6,1.6,0,0,0-2.754,1.118v18.8a1.6,1.6,0,0,0,3.209,0V283.744l9.8,9.616a1.605,1.605,0,0,0,2.271.016l9.824-9.616v14.955a1.6,1.6,0,0,0,3.209,0v-18.8a1.6,1.6,0,0,0-1.6-1.6" transform="translate(-215.399 -278.306)" fill="#fff"/><path d="M295.007,298,282.437,279.1a1.606,1.606,0,1,0-2.781,1.6l4.692,7.05h-9.459a1.337,1.337,0,0,0-.18.02,1.6,1.6,0,0,0-1.354.8l-6.2,9.369a1.606,1.606,0,1,0,2.781,1.6l5.677-8.58h10.871l5.744,8.631a1.606,1.606,0,0,0,2.782-1.6" transform="translate(-162.215 -278.301)" fill="#fff"/><path d="M183.35,289.375v9.341a1.582,1.582,0,0,0,.126.624,1.607,1.607,0,0,0,1.479.981H209.82a1.6,1.6,0,1,0,0-3.209h-23.26v-6.128h15.826a1.6,1.6,0,1,0,0-3.209H184.955a1.581,1.581,0,0,0-.624.126,1.607,1.607,0,0,0-.981,1.479m28.074-9.455a1.6,1.6,0,0,0-1.6-1.6H184.955a1.6,1.6,0,1,0,0,3.209H209.82a1.6,1.6,0,0,0,1.6-1.6" transform="translate(-111.419 -278.312)" fill="#fff"/><path d="M120.164,292.369a4.421,4.421,0,0,0-1.189-2.989,4.429,4.429,0,0,0,1.189-2.989v-3.472a4.717,4.717,0,0,0-4.8-4.6H93.695a1.6,1.6,0,1,0,0,3.209h20.063a3.083,3.083,0,0,1,3.193,2.989v.263a3.083,3.083,0,0,1-3.193,2.989H93.695a1.6,1.6,0,0,0-1.6,1.6v9.31a1.636,1.636,0,0,0,3.272,0v-7.7h18.4a3.135,3.135,0,0,1,3.131,2.4v5.308a1.636,1.636,0,1,0,3.272,0v-6.316Z" transform="translate(-55.962 -278.312)" fill="#fff"/></g><g transform="translate(36.254 135.345)"><path d="M92.41,357.893v-6.881a.729.729,0,0,1,.741-.741h4.865a.655.655,0,1,1,0,1.31H93.881v2.173h3.6a.665.665,0,0,1,.655.671.641.641,0,0,1-.655.643h-3.6v2.248h4.194a.657.657,0,0,1,0,1.314H93.151a.729.729,0,0,1-.741-.741Z" transform="translate(-92.41 -350.125)" fill="#fff"/><path d="M136.56,350.863a.736.736,0,0,1,.741-.742h.157a.93.93,0,0,1,.765.432l4.182,5.414v-5.139a.721.721,0,0,1,.718-.718.728.728,0,0,1,.73.718v7.026a.714.714,0,0,1-.718.73h-.059a.93.93,0,0,1-.765-.443l-4.3-5.567v5.3a.721.721,0,0,1-.718.718.728.728,0,0,1-.73-.718v-7.015Z" transform="translate(-119.239 -350.028)" fill="#fff"/><path d="M184.37,357.893v-6.881a.729.729,0,0,1,.741-.741h4.865a.655.655,0,1,1,0,1.31h-4.135v2.173h3.6a.665.665,0,0,1,.655.671.641.641,0,0,1-.655.643h-3.6v2.248h4.194a.657.657,0,0,1,0,1.314h-4.924a.729.729,0,0,1-.741-.741Z" transform="translate(-148.293 -350.125)" fill="#fff"/><path d="M228.524,351a.729.729,0,0,1,.741-.741h2.986a3.367,3.367,0,0,1,2.413.836,2.525,2.525,0,0,1,.694,1.8v.024a2.48,2.48,0,0,1-1.9,2.5l1.6,2.02a.844.844,0,0,1,.239.561.693.693,0,0,1-.706.683.852.852,0,0,1-.718-.381l-2.032-2.593h-1.852v2.248a.723.723,0,0,1-.73.73.733.733,0,0,1-.742-.73v-6.956Zm3.621,3.405c1.051,0,1.722-.549,1.722-1.4v-.024c0-.9-.643-1.385-1.734-1.385H230v2.809h2.15Z" transform="translate(-175.122 -350.119)" fill="#fff"/><path d="M273.35,354.251v-.024a4.263,4.263,0,0,1,4.315-4.327,4.54,4.54,0,0,1,2.856.847.735.735,0,0,1-.432,1.326.762.762,0,0,1-.455-.169,3.187,3.187,0,0,0-2.032-.655,2.827,2.827,0,0,0-2.711,2.95v.024a2.791,2.791,0,0,0,2.844,2.986,3.43,3.43,0,0,0,2.02-.632v-1.565h-1.648a.645.645,0,0,1-.659-.632.652.652,0,0,1,.659-.643h2.33a.729.729,0,0,1,.741.742v2.236a1.02,1.02,0,0,1-.514.934,5.327,5.327,0,0,1-2.974.906,4.151,4.151,0,0,1-4.339-4.3Z" transform="translate(-202.364 -349.9)" fill="#fff"/><path d="M322.6,355.266l-2.88-3.955a.924.924,0,0,1-.169-.514.717.717,0,0,1,.741-.706.853.853,0,0,1,.718.443l2.33,3.358,2.366-3.37a.844.844,0,0,1,.706-.443.7.7,0,0,1,.718.718.88.88,0,0,1-.2.526l-2.856,3.907v2.617a.726.726,0,0,1-.741.73.716.716,0,0,1-.73-.73Z" transform="translate(-230.439 -350.009)" fill="#fff"/></g><g transform="translate(37.432)"><path d="M61.821,75.734A30.689,30.689,0,0,1,46.343,71.54,30.82,30.82,0,0,1,0,44.88a46.245,46.245,0,0,0,92.129,5.771A30.855,30.855,0,0,1,61.821,75.744Z" transform="translate(0 1.37)" fill="#03a9c5"/><path d="M30.864,76.648a30.689,30.689,0,0,0,15.478-4.194,30.808,30.808,0,0,1,0-53.34A30.856,30.856,0,1,0,30.864,76.659Z" transform="translate(0 0.455)" fill="#008782"/><path d="M30.864,15.386A30.689,30.689,0,0,1,46.343,19.58a30.8,30.8,0,0,1,45.786,20.9A46.245,46.245,0,0,0,0,46.25,30.865,30.865,0,0,1,30.864,15.386Z" transform="translate(0 0)" fill="#52ae32"/><path d="M60.449,14.93A30.689,30.689,0,0,0,44.97,19.124a30.808,30.808,0,0,1,0,53.34,30.8,30.8,0,0,0,45.786-20.9,44.9,44.9,0,0,0,0-11.521A30.855,30.855,0,0,0,60.449,14.951Z" transform="translate(1.373 0.456)" fill="#a9f571"/><path d="M30.864,76.648a30.689,30.689,0,0,0,15.478-4.194,30.808,30.808,0,0,1,0-53.34A30.856,30.856,0,1,0,30.864,76.659Z" transform="translate(0 0.455)" fill="url(#a)" style="mix-blend-mode:multiply;isolation:isolate"/><path d="M61.821,75.734A30.689,30.689,0,0,1,46.343,71.54,30.82,30.82,0,0,1,0,44.88a46.245,46.245,0,0,0,92.129,5.771A30.855,30.855,0,0,1,61.821,75.744Z" transform="translate(0 1.37)" fill="url(#b)" style="mix-blend-mode:multiply;isolation:isolate"/><path d="M30.864,15.386A30.689,30.689,0,0,1,46.343,19.58a30.8,30.8,0,0,1,45.786,20.9A46.245,46.245,0,0,0,0,46.25,30.865,30.865,0,0,1,30.864,15.386Z" transform="translate(0 0)" opacity="0.73" fill="url(#c)" style="mix-blend-mode:multiply;isolation:isolate"/><path d="M60.449,14.93A30.689,30.689,0,0,0,44.97,19.124a30.808,30.808,0,0,1,0,53.34,30.8,30.8,0,0,0,45.786-20.9,44.9,44.9,0,0,0,0-11.521A30.855,30.855,0,0,0,60.449,14.951Z" transform="translate(1.373 0.456)" opacity="0.73" fill="url(#d)" style="mix-blend-mode:multiply;isolation:isolate"/></g></svg>