<svg xmlns="http://www.w3.org/2000/svg" width="93.442" height="91.148" viewBox="0 0 93.442 91.148"><g transform="translate(-1664.5 -211.098)"><g transform="translate(1666 232.185)"><g transform="translate(0 23.34)"><path d="M1806,346.308l1.378,2.755a5.57,5.57,0,0,0,4.982,3.08h0a1.459,1.459,0,0,1,1.325.847l6.849,14.84a2.917,2.917,0,0,0,4.4,1.111l.031-.023a7.294,7.294,0,0,0,2.917-5.835V360.9l4.772-6.5c2.026-3.241,3.467-5.254,1.775-8.091" transform="translate(-1754.944 -340.473)" fill="none" stroke="#fff" stroke-linecap="round" stroke-linejoin="round" stroke-width="3"/><path d="M1774,437.6s0-7.294,8.752-7.294c2.917,0,4.376,2.917,4.376,2.917l2.917-1.459" transform="translate(-1734.614 -393.839)" fill="none" stroke="#fff" stroke-linecap="round" stroke-linejoin="round" stroke-width="3"/><path d="M1710.041,346.308l2.918,5.835,3.332.949c1.575.374,3.107,2.338,2.271,4.128l-3.336,7.142a8.752,8.752,0,0,0,.539,8.758l1.57,2.363-3.31-.662a13.737,13.737,0,0,1-9.05-5.988,50.543,50.543,0,0,1-3.764-8.6l-1.828-5.169-2.441-1.427a5.915,5.915,0,0,1-2.4-2.454,4.24,4.24,0,0,1,.468-4.871" transform="translate(-1683.789 -340.473)" fill="none" stroke="#fff" stroke-linecap="round" stroke-linejoin="round" stroke-width="3"/><path d="M1756.442,330.308a45.221,45.221,0,0,1-90.442,0Z" transform="translate(-1666 -330.308)" fill="none" stroke="#fff" stroke-linecap="round" stroke-linejoin="round" stroke-width="3"/></g><g transform="translate(5.835)"><path d="M1686.376,266.308,1682,283.813h35.01l-4.376-17.505Z" transform="translate(-1682 -266.308)" fill="none" stroke="#fff" stroke-linecap="round" stroke-linejoin="round" stroke-width="3"/><line x1="2.917" y2="17.505" transform="translate(10.211)" fill="none" stroke="#fff" stroke-linecap="round" stroke-linejoin="round" stroke-width="3"/><line x2="2.917" y2="17.505" transform="translate(21.881)" fill="none" stroke="#fff" stroke-linecap="round" stroke-linejoin="round" stroke-width="3"/><line x2="29.44" transform="translate(2.652 8.752)" fill="none" stroke="#fff" stroke-linecap="round" stroke-linejoin="round" stroke-width="3"/><line y2="4.741" transform="translate(17.505 17.505)" fill="none" stroke="#fff" stroke-linecap="round" stroke-linejoin="round" stroke-width="3"/></g></g><g transform="translate(1710.598 212.598)"><path d="M1788.29,252.729l.024-40.131h3.989v4.013l4.682,33.442" transform="translate(-1788.29 -212.598)" fill="none" stroke="#fff" stroke-linecap="round" stroke-linejoin="round" stroke-width="3"/><line x2="6.056" transform="translate(20.439 37.932)" fill="none" stroke="#fff" stroke-linecap="round" stroke-linejoin="round" stroke-width="3"/><path d="M1860.941,311.336a3.028,3.028,0,0,1,6.056,0" transform="translate(-1834.446 -273.404)" fill="none" stroke="#fff" stroke-linecap="round" stroke-linejoin="round" stroke-width="3"/><path d="M1788.29,325.64c2.073,0,2.073,1.338,4.145,1.338s2.071-1.338,4.143-1.338,2.073,1.338,4.145,1.338,2.073-1.338,4.147-1.338,2.073,1.338,4.147,1.338,2.073-1.338,4.147-1.338,2.074,1.338,4.147,1.338,2.073-1.338,4.146-1.338,2.075,1.338,4.149,1.338,2.076-1.338,4.152-1.338" transform="translate(-1788.29 -284.415)" fill="none" stroke="#fff" stroke-linecap="round" stroke-linejoin="round" stroke-width="3"/><path d="M1877.546,312.654a2.271,2.271,0,1,1,4.542,0" transform="translate(-1844.996 -274.722)" fill="none" stroke="#fff" stroke-linecap="round" stroke-linejoin="round" stroke-width="3"/><path d="M1831.13,302.515a3.129,3.129,0,0,0-6.259,0" transform="translate(-1811.53 -267.736)" fill="none" stroke="#fff" stroke-linecap="round" stroke-linejoin="round" stroke-width="3"/><path d="M1816.058,303.561a2.529,2.529,0,0,0-5.058,0" transform="translate(-1802.718 -268.781)" fill="none" stroke="#fff" stroke-linecap="round" stroke-linejoin="round" stroke-width="3"/><path d="M1814,234.606h23.4v2.007" transform="translate(-1804.624 -226.58)" fill="none" stroke="#fff" stroke-linecap="round" stroke-linejoin="round" stroke-width="3"/><line y2="1.338" transform="translate(23.41 8.026)" fill="none" stroke="#fff" stroke-linecap="round" stroke-linejoin="round" stroke-width="3"/><line y2="1.338" transform="translate(14.046 8.026)" fill="none" stroke="#fff" stroke-linecap="round" stroke-linejoin="round" stroke-width="3"/><path d="M1810.3,245.61h20.734c7.357,0,8.024,13.383,8.024,25.893" transform="translate(-1802.273 -233.571)" fill="none" stroke="#fff" stroke-linecap="round" stroke-linejoin="round" stroke-width="3"/><path d="M1841.482,245.61c7.357,0,8.024,14.046,8.024,22.741" transform="translate(-1822.083 -233.571)" fill="none" stroke="#fff" stroke-linecap="round" stroke-linejoin="round" stroke-width="3"/><path d="M1815.805,245.61c6.529,0,8.025,10.7,8.025,20.065" transform="translate(-1805.771 -233.571)" fill="none" stroke="#fff" stroke-linecap="round" stroke-linejoin="round" stroke-width="3"/><path d="M1842.033,301.153a3.912,3.912,0,0,1,7.823,0" transform="translate(-1822.434 -266.373)" fill="none" stroke="#fff" stroke-linecap="round" stroke-linejoin="round" stroke-width="3"/><path d="M1799.294,216.611h28.76l.024-4.013h3.989v4.013l4.682,33.442" transform="translate(-1795.281 -212.598)" fill="none" stroke="#fff" stroke-linecap="round" stroke-linejoin="round" stroke-width="3"/></g></g></svg>