<svg xmlns="http://www.w3.org/2000/svg" xmlns:xlink="http://www.w3.org/1999/xlink" width="75.153" height="145.851" viewBox="0 0 75.153 145.851"><defs><radialGradient id="a" cx="0.5" cy="0.5" r="0.5" gradientUnits="objectBoundingBox"><stop offset="0" stop-color="#209f97"/><stop offset="0.611" stop-color="#c5eef4"/><stop offset="1" stop-color="#fff"/></radialGradient><linearGradient id="b" x1="0.5" y1="0.051" x2="0.5" y2="1" gradientUnits="objectBoundingBox"><stop offset="0" stop-color="#fff"/><stop offset="0.142" stop-color="#fff"/><stop offset="0.32" stop-color="#a9f571"/><stop offset="0.414" stop-color="#baf382"/><stop offset="0.704" stop-color="#00b4cd"/><stop offset="1" stop-color="#fff"/></linearGradient><radialGradient id="c" cx="0.5" cy="0.5" r="1.674" gradientTransform="translate(0 0.208) scale(1 0.585)" gradientUnits="objectBoundingBox"><stop offset="0" stop-color="#00766f"/><stop offset="0.339" stop-color="#00b4cd"/><stop offset="0.645" stop-color="#90e593"/><stop offset="1" stop-color="#baf382"/></radialGradient><clipPath id="d"><rect width="15.028" height="3.643" transform="translate(0 0)" fill="#fff" stroke="#707070" stroke-width="1"/></clipPath><clipPath id="e"><rect width="12.456" height="4.853" fill="#fff"/></clipPath><clipPath id="g"><rect width="29.783" height="55.77" rx="9" transform="translate(0 0)" fill="url(#a)"/></clipPath><linearGradient id="h" x1="0.389" y1="0.878" x2="0.876" y2="-0.042" gradientUnits="objectBoundingBox"><stop offset="0" stop-color="#fff"/><stop offset="0.31" stop-color="#aab6bd"/><stop offset="1" stop-color="#004141"/></linearGradient><linearGradient id="i" x1="0.806" y1="0.676" x2="0.029" y2="-0.097" gradientUnits="objectBoundingBox"><stop offset="0" stop-color="#fff"/><stop offset="0.26" stop-color="#a7afbf"/><stop offset="1" stop-color="#001a30"/></linearGradient><radialGradient id="j" cx="0.118" cy="0.228" r="1.576" gradientTransform="translate(0.059) scale(0.502 1)" gradientUnits="objectBoundingBox"><stop offset="0.07" stop-color="#fff"/><stop offset="0.16" stop-color="#f8faf9"/><stop offset="0.27" stop-color="#e7efeb"/><stop offset="0.41" stop-color="#cbdcd3"/><stop offset="0.55" stop-color="#a3c1b2"/><stop offset="0.71" stop-color="#709f88"/><stop offset="0.87" stop-color="#337655"/><stop offset="1" stop-color="#00542a"/></radialGradient><radialGradient id="k" cx="0.655" cy="0.071" r="0.986" gradientTransform="translate(-0.221) scale(1.337 1)" gradientUnits="objectBoundingBox"><stop offset="0" stop-color="#fff"/><stop offset="0.26" stop-color="#fcfdfc"/><stop offset="0.4" stop-color="#f4f6f5"/><stop offset="0.51" stop-color="#e7ebe8"/><stop offset="0.6" stop-color="#d4dbd6"/><stop offset="0.68" stop-color="#bbc6bf"/><stop offset="0.76" stop-color="#9cada2"/><stop offset="0.83" stop-color="#778f80"/><stop offset="0.9" stop-color="#4d6c58"/><stop offset="0.96" stop-color="#1e452c"/><stop offset="1" stop-color="#002c10"/></radialGradient><radialGradient id="l" cx="0.848" cy="1.366" r="1.775" gradientTransform="matrix(0.99, 0.141, -0.179, 1.257, 0.161, -0.328)" gradientUnits="objectBoundingBox"><stop offset="0" stop-color="#00766f"/><stop offset="0.163" stop-color="#54a020"/><stop offset="0.389" stop-color="#00b4cd"/><stop offset="0.562" stop-color="#5fc6ce"/><stop offset="1" stop-color="#6dd8e0"/></radialGradient><radialGradient id="m" cx="0.848" cy="-0.366" r="1.775" gradientTransform="matrix(0.99, -0.141, -0.179, -1.257, -0.148, -0.851)" xlink:href="#l"/></defs><path d="M8164.2,1164.722a4.855,4.855,0,0,1-3.878-1.906c-1.954-2.39-2.855-7.05-2.479-12.784.349-5.3,1.746-10.507,3.648-13.6l.938.563c-1.815,2.952-3.155,7.975-3.492,13.107-.354,5.385.482,9.883,2.238,12.032,1.218,1.49,2.811,1.871,4.854,1.169.714-.245,1.775-1.245,2.771-4.621a62.548,62.548,0,0,0,1.858-10.86,309.456,309.456,0,0,0,1.046-31.6c-.163-22.435-1.589-44.73-1.6-44.953l1.094-.069c.015.223,1.441,22.549,1.6,45.014a310.323,310.323,0,0,1-1.05,31.72,63.618,63.618,0,0,1-1.9,11.057c-.918,3.11-2.051,4.857-3.465,5.341A6.764,6.764,0,0,1,8164.2,1164.722Z" transform="translate(-8157.756 -1048.432)" fill="#b7b7b7"/><path d="M8166.814,1178.326a4.647,4.647,0,0,1-1.5-.266c-1.417-.485-2.58-2.432-3.553-5.949a82.414,82.414,0,0,1-2.118-12.625c-.959-9-1.545-21.279-1.736-36.5-.331-25.909.6-51.722.605-51.98l1.1.039c-.009.258-.937,26.048-.606,51.931.193,15.191.776,27.439,1.73,36.4a82.058,82.058,0,0,0,2.085,12.451c1.072,3.865,2.144,4.967,2.855,5.211a2.927,2.927,0,0,0,3.5-1.056c2.28-2.791,3.375-9.993,2.926-19.264-.405-8.379-2.048-16.444-4-19.612l.938-.563c2.064,3.36,3.735,11.447,4.155,20.124a65.55,65.55,0,0,1-.384,11.775c-.53,3.844-1.468,6.61-2.784,8.222A4.082,4.082,0,0,1,8166.814,1178.326Z" transform="translate(-8098.139 -1048.538)" fill="#b7b7b7"/><g transform="translate(14.359 0)"><rect width="45.459" height="128.58" transform="translate(0 17.224)"/><path d="M-1.955,0H40.884V139.223l1.045,6.628H-3l1.045-6.9Z" transform="translate(3.109 0)" fill="url(#b)"/><rect width="32.837" height="78.126" rx="9" transform="translate(5.972 30.459)"/><path d="M2.673,0H19.981a2.658,2.658,0,0,1,2.673,2.642V40.681a2.658,2.658,0,0,1-2.673,2.642H2.673A2.658,2.658,0,0,1,0,40.681V2.642A2.658,2.658,0,0,1,2.673,0Z" transform="translate(10.939 39.255)" fill="url(#c)"/><path d="M2.673,1.549A1.1,1.1,0,0,0,1.568,2.642V40.681a1.1,1.1,0,0,0,1.106,1.093H19.981a1.1,1.1,0,0,0,1.106-1.093V2.642a1.1,1.1,0,0,0-1.106-1.093H2.673M2.673,0H19.981a2.658,2.658,0,0,1,2.673,2.642V40.681a2.658,2.658,0,0,1-2.673,2.642H2.673A2.658,2.658,0,0,1,0,40.681V2.642A2.658,2.658,0,0,1,2.673,0Z" transform="translate(10.939 39.255)"/><g transform="translate(15.65 58.685)"><g transform="translate(0 0)"><g transform="translate(0.618 0)" opacity="0.2"><g transform="translate(3.575 5.299)"><path d="M13.586,19.942H8.223a.221.221,0,1,1,0-.442h5.362a.221.221,0,1,1,0,.442Z" transform="translate(-8 -19.5)" fill="#fff"/></g><g transform="translate(0)"><path d="M1.117,13.241a.819.819,0,0,1-.492-.221A4.173,4.173,0,0,1,0,10.812,2.674,2.674,0,0,1,.938,8.736L.492,8.295a.328.328,0,0,1-.045-.221A.246.246,0,0,1,.67,7.942H2.19A8.127,8.127,0,0,1,5.273,7.5a8.689,8.689,0,0,1,5.273,1.766c2.011.044,2.815,1.281,2.815,1.811v1.369a.892.892,0,0,1-.8.795H11.8a.221.221,0,1,1,0-.442h.76c.089,0,.357-.132.357-.353V11.077c0-.265-.626-1.369-2.458-1.369a.165.165,0,0,1-.134-.044A8.507,8.507,0,0,0,5.273,7.942a7.7,7.7,0,0,0-2.994.442H1.206L1.43,8.6c.045.044.089.088.045.177s-.045.132-.089.177a2.251,2.251,0,0,0-.938,1.855,3.657,3.657,0,0,0,.492,1.9c.089.088.134.088.179.088a.221.221,0,1,1,0,.442Z" transform="translate(0 -7.5)" fill="#fff"/></g><g transform="translate(8.937 3.533)"><path d="M21.564,18.591a1.546,1.546,0,1,1,1.564-1.546A1.574,1.574,0,0,1,21.564,18.591Zm0-2.65a1.1,1.1,0,1,0,1.117,1.1A1.1,1.1,0,0,0,21.564,15.942Z" transform="translate(-20 -15.5)" fill="#fff"/></g><g transform="translate(0.894 3.533)"><path d="M3.564,18.591a1.546,1.546,0,1,1,1.564-1.546A1.574,1.574,0,0,1,3.564,18.591Zm0-2.65a1.1,1.1,0,1,0,1.117,1.1A1.1,1.1,0,0,0,3.564,15.942Z" transform="translate(-2 -15.5)" fill="#fff"/></g></g><g transform="translate(0 3.002)" clip-path="url(#d)"><g transform="translate(1.07 -2.543)" clip-path="url(#e)"><path d="M2.009,3.089A1.573,1.573,0,0,0,.446,4.633a.528.528,0,0,0,0,.084A3.916,3.916,0,0,1,0,2.868,2.249,2.249,0,0,1,.938,1.015C.982.971.982.927,1.027.838s0-.132-.045-.176L.759.441H1.83A7.693,7.693,0,0,1,4.822,0,8.5,8.5,0,0,1,9.867,1.721.165.165,0,0,0,10,1.765c1.83,0,2.456,1.1,2.456,1.368V4.5c0,.221-.268.353-.357.353H11.59a1.194,1.194,0,0,0,.018-.221,1.563,1.563,0,0,0-3.125,0,1.194,1.194,0,0,0,.018.221H3.554a1.194,1.194,0,0,0,.018-.221A1.573,1.573,0,0,0,2.009,3.089" transform="translate(0)" fill="#fff"/></g></g></g><g transform="translate(1.069 0.458)" opacity="0.1" clip-path="url(#e)"><path d="M2.009,3.089A1.573,1.573,0,0,0,.446,4.633a.528.528,0,0,0,0,.084A3.916,3.916,0,0,1,0,2.868,2.249,2.249,0,0,1,.938,1.015C.982.971.982.927,1.027.838s0-.132-.045-.176L.759.441H1.83A7.693,7.693,0,0,1,4.822,0,8.5,8.5,0,0,1,9.867,1.721.165.165,0,0,0,10,1.765c1.83,0,2.456,1.1,2.456,1.368V4.5c0,.221-.268.353-.357.353H11.59a1.194,1.194,0,0,0,.018-.221,1.563,1.563,0,0,0-3.125,0,1.194,1.194,0,0,0,.018.221H3.554a1.194,1.194,0,0,0,.018-.221A1.573,1.573,0,0,0,2.009,3.089" transform="translate(0)" fill="#fff"/></g></g><g transform="translate(11.875 4.436)"><g transform="translate(0 13.632)"><path d="M3.611,278.884a.6.6,0,0,0-.617-.584H.206a.205.205,0,0,0-.206.2v2.389a.205.205,0,0,0,.206.2H2.994a.6.6,0,0,0,.617-.585v-1.628ZM3.2,280.309a.4.4,0,0,1-.411.38H.413v-1.981H2.787a.4.4,0,0,1,.411.38v1.221Z" transform="translate(0 -278.3)"/><path d="M357.9,278.31a.282.282,0,0,0-.159.075l-1.456,1.409-1.466-1.422a.207.207,0,0,0-.148-.062.205.205,0,0,0-.206.2V280.9a.206.206,0,0,0,.413,0V279l1.26,1.222a.208.208,0,0,0,.292,0L357.689,279v1.9a.206.206,0,0,0,.413,0v-2.389a.2.2,0,0,0-.206-.2" transform="translate(-336.575 -278.31)"/><path d="M270.551,280.8l-1.617-2.4a.208.208,0,0,0-.282-.075.2.2,0,0,0-.076.279l.6.9h-1.216l-.023,0a.206.206,0,0,0-.174.1l-.8,1.191a.2.2,0,0,0,.076.279.208.208,0,0,0,.282-.075l.73-1.091h1.4l.739,1.1a.208.208,0,0,0,.282.075.2.2,0,0,0,.076-.279" transform="translate(-253.472 -278.301)"/><path d="M183.35,279.725v1.187a.2.2,0,0,0,.016.079.207.207,0,0,0,.19.125h3.2a.2.2,0,1,0,0-.408h-2.992v-.779H185.8a.2.2,0,1,0,0-.408h-2.242a.205.205,0,0,0-.206.2m3.611-1.2a.205.205,0,0,0-.206-.2h-3.2a.2.2,0,1,0,0,.408h3.2a.205.205,0,0,0,.206-.2" transform="translate(-174.099 -278.319)"/><path d="M95.7,280.106a.549.549,0,0,1,0-.76V278.9a.6.6,0,0,0-.617-.584H92.3a.2.2,0,1,0,0,.408h2.58a.4.4,0,0,1,.411.38v.033a.4.4,0,0,1-.411.38H92.3a.205.205,0,0,0-.206.2v1.183a.21.21,0,0,0,.421,0v-.979h2.366a.4.4,0,0,1,.4.3v.675a.21.21,0,0,0,.421,0v-.8Z" transform="translate(-87.444 -278.319)"/></g><g transform="translate(4.663 17.203)"><path d="M92.41,351.239v-.875a.093.093,0,0,1,.1-.094h.626a.083.083,0,1,1,0,.167H92.6v.276h.463a.085.085,0,0,1,.084.085.082.082,0,0,1-.084.082H92.6v.286h.539a.084.084,0,1,1,0,.167h-.633a.093.093,0,0,1-.1-.094Z" transform="translate(-92.41 -350.251)"/><path d="M136.56,350.206a.094.094,0,0,1,.1-.094h.02a.12.12,0,0,1,.1.055l.538.688V350.2a.092.092,0,0,1,.092-.091.093.093,0,0,1,.094.091v.893a.091.091,0,0,1-.092.093H137.4a.12.12,0,0,1-.1-.056l-.553-.708v.674a.092.092,0,0,1-.092.091.093.093,0,0,1-.094-.091v-.891Z" transform="translate(-134.332 -350.1)"/><path d="M184.37,351.239v-.875a.093.093,0,0,1,.1-.094h.626a.083.083,0,1,1,0,.167h-.532v.276h.463a.085.085,0,0,1,.084.085.082.082,0,0,1-.084.082h-.463v.286h.539a.084.084,0,1,1,0,.167h-.633a.093.093,0,0,1-.1-.094Z" transform="translate(-179.73 -350.251)"/><path d="M228.521,350.354a.093.093,0,0,1,.1-.094H229a.436.436,0,0,1,.31.106.319.319,0,0,1,.089.229v0a.316.316,0,0,1-.244.318l.206.257a.106.106,0,0,1,.031.071.089.089,0,0,1-.091.087.11.11,0,0,1-.092-.048l-.261-.33h-.238v.286a.093.093,0,0,1-.094.093.094.094,0,0,1-.1-.093v-.884Zm.466.433c.135,0,.222-.07.222-.178v0c0-.114-.083-.176-.223-.176h-.275v.357h.277Z" transform="translate(-221.652 -350.242)"/><path d="M273.35,350.453v0a.545.545,0,0,1,.555-.55.589.589,0,0,1,.367.108.093.093,0,0,1-.056.169.1.1,0,0,1-.059-.022.413.413,0,0,0-.261-.083.361.361,0,0,0-.349.375v0a.357.357,0,0,0,.366.38.444.444,0,0,0,.26-.08v-.2h-.212a.082.082,0,0,1-.085-.08.083.083,0,0,1,.085-.082h.3a.093.093,0,0,1,.1.094v.284a.129.129,0,0,1-.066.119.69.69,0,0,1-.382.115.531.531,0,0,1-.558-.546Z" transform="translate(-264.22 -349.9)"/><path d="M319.942,350.739l-.37-.5a.116.116,0,0,1-.022-.065.092.092,0,0,1,.1-.09.11.11,0,0,1,.092.056l.3.427.3-.428a.109.109,0,0,1,.091-.056.089.089,0,0,1,.092.091.111.111,0,0,1-.026.067l-.367.5v.333a.093.093,0,0,1-.1.093.092.092,0,0,1-.094-.093Z" transform="translate(-308.09 -350.071)"/></g><g transform="translate(4.814)"><path d="M7.737,48.741A3.84,3.84,0,0,1,5.8,48.216,3.857,3.857,0,0,1,0,44.88a5.787,5.787,0,0,0,11.529.722,3.861,3.861,0,0,1-3.793,3.14Z" transform="translate(0 -39.092)" fill="#03a9c5"/><path d="M3.862,22.645A3.84,3.84,0,0,0,5.8,22.12a3.855,3.855,0,0,1,0-6.675,3.861,3.861,0,1,0-1.937,7.2Z" transform="translate(0 -12.996)" fill="#008782"/><path d="M3.862,1.925A3.84,3.84,0,0,1,5.8,2.45a3.855,3.855,0,0,1,5.73,2.615A5.787,5.787,0,0,0,0,5.788,3.863,3.863,0,0,1,3.862,1.925Z" transform="translate(0 0)" fill="#52ae32"/><path d="M46.907,14.93a3.84,3.84,0,0,0-1.937.525,3.855,3.855,0,0,1,0,6.675,3.855,3.855,0,0,0,5.73-2.615,5.62,5.62,0,0,0,0-1.442,3.861,3.861,0,0,0-3.793-3.14Z" transform="translate(-39.171 -13.005)" fill="#a9f571"/><path d="M3.862,22.645A3.84,3.84,0,0,0,5.8,22.12a3.855,3.855,0,0,1,0-6.675,3.861,3.861,0,1,0-1.937,7.2Z" transform="translate(0 -12.996)" fill="url(#h)" style="mix-blend-mode:multiply;isolation:isolate"/><path d="M7.737,48.741A3.84,3.84,0,0,1,5.8,48.216,3.857,3.857,0,0,1,0,44.88a5.787,5.787,0,0,0,11.529.722,3.861,3.861,0,0,1-3.793,3.14Z" transform="translate(0 -39.092)" fill="url(#i)" style="mix-blend-mode:multiply;isolation:isolate"/><path d="M3.862,1.925A3.84,3.84,0,0,1,5.8,2.45a3.855,3.855,0,0,1,5.73,2.615A5.787,5.787,0,0,0,0,5.788,3.863,3.863,0,0,1,3.862,1.925Z" transform="translate(0 0)" opacity="0.73" fill="url(#j)" style="mix-blend-mode:multiply;isolation:isolate"/><path d="M46.907,14.93a3.84,3.84,0,0,0-1.937.525,3.855,3.855,0,0,1,0,6.675,3.855,3.855,0,0,0,5.73-2.615,5.62,5.62,0,0,0,0-1.442,3.861,3.861,0,0,0-3.793-3.14Z" transform="translate(-39.171 -13.005)" opacity="0.73" fill="url(#k)" style="mix-blend-mode:multiply;isolation:isolate"/></g></g><g transform="translate(8.965 39.255)"><path d="M-12.1,0h3.18L-23.211,43.287h-3.18Z" transform="translate(34.722 0)" fill="#fff" opacity="0.107"/><path d="M-28.6,0h8.034L-34.857,43.287h-8.034Z" transform="translate(42.891 0)" fill="#fff" opacity="0.107"/></g></g><g transform="translate(2.423 80.296)"><rect width="1.669" height="3.16" rx="0.834" transform="matrix(0.799, 0.602, -0.602, 0.799, 1.908, 6.528)"/><path d="M2.889,8.961a.63.63,0,0,1-.392-.18S.5,7.327.153,7.035s0-.662,0-.662l3.9-4.718A4.758,4.758,0,0,1,7.949,0h3.134V0l.061,0A.754.754,0,0,1,11.9.754V3.6a.754.754,0,0,1-.754.754l-.061,0H8.326a3.316,3.316,0,0,0-2.256.97L3.248,8.788H3.216a.414.414,0,0,1-.324.173Zm.337-.173-.056.069Z" transform="translate(0.496 0)" fill="url(#l)"/><rect width="1.508" height="4.356" rx="0.754" transform="translate(10.885 0)"/></g><g transform="translate(59.818 80.296)"><rect width="1.669" height="3.161" rx="0.834" transform="matrix(-0.799, 0.602, -0.602, -0.799, 12.402, 9.042)"/><path d="M11.083,8.959v0H7.949A4.758,4.758,0,0,1,4.055,7.306L.153,2.588s-.345-.37,0-.662S2.5.18,2.5.18A.63.63,0,0,1,2.889,0a.416.416,0,0,1,.327.173h.01L3.17.1l.056.068h.023L6.07,3.638a3.317,3.317,0,0,0,2.256.969h2.757l.061,0a.755.755,0,0,1,.754.754V8.207a.754.754,0,0,1-.754.754Z" transform="translate(11.898 8.962) rotate(180)" fill="url(#m)"/><rect width="1.508" height="4.356" rx="0.754" transform="translate(0 0)"/></g><path d="M8191.771,998.353h-4.25V1022.6l4.25,5.226Z" transform="translate(-8175.661 -998.353)" fill="#fff"/><path d="M8187.521,998.353h4.037V1022.6l-4.037,5.226Z" transform="translate(-8129.555 -998.353)" fill="#fff"/></svg>