<svg id="Groupe_1743" data-name="Groupe 1743" xmlns="http://www.w3.org/2000/svg" width="10.764" height="15.207" viewBox="0 0 10.764 15.207">
  <path id="ellipse4206" d="M-10.353-11.5a1.139,1.139,0,0,1,1.147,1.127,1.139,1.139,0,0,1-1.147,1.127A1.139,1.139,0,0,1-11.5-10.373,1.139,1.139,0,0,1-10.353-11.5Zm0,1.668a.551.551,0,0,0,.561-.54.551.551,0,0,0-.561-.54.551.551,0,0,0-.561.54A.551.551,0,0,0-10.353-9.832Z" transform="translate(17.1 16.854)"/>
  <path id="ellipse4208" d="M-10.353-11.5a1.139,1.139,0,0,1,1.147,1.127,1.139,1.139,0,0,1-1.147,1.127A1.139,1.139,0,0,1-11.5-10.373,1.139,1.139,0,0,1-10.353-11.5Zm0,1.668a.551.551,0,0,0,.561-.54.551.551,0,0,0-.561-.54.551.551,0,0,0-.561.54A.551.551,0,0,0-10.353-9.832Z" transform="translate(14.365 16.854)"/>
  <path id="ellipse4210" d="M-10.353-11.5a1.139,1.139,0,0,1,1.147,1.127,1.139,1.139,0,0,1-1.147,1.127A1.139,1.139,0,0,1-11.5-10.373,1.139,1.139,0,0,1-10.353-11.5Zm0,1.668a.551.551,0,0,0,.561-.54.551.551,0,0,0-.561-.54.551.551,0,0,0-.561.54A.551.551,0,0,0-10.353-9.832Z" transform="translate(13.079 14.602)"/>
  <path id="ellipse4212" d="M-10.353-11.5a1.139,1.139,0,0,1,1.147,1.127,1.139,1.139,0,0,1-1.147,1.127A1.139,1.139,0,0,1-11.5-10.373,1.139,1.139,0,0,1-10.353-11.5Zm0,1.668a.551.551,0,0,0,.561-.54.551.551,0,0,0-.561-.54.551.551,0,0,0-.561.54A.551.551,0,0,0-10.353-9.832Z" transform="translate(15.732 14.602)"/>
  <path id="ellipse4214" d="M-10.353-11.5a1.139,1.139,0,0,1,1.147,1.127,1.139,1.139,0,0,1-1.147,1.127A1.139,1.139,0,0,1-11.5-10.373,1.139,1.139,0,0,1-10.353-11.5Zm0,1.668a.551.551,0,0,0,.561-.54.551.551,0,0,0-.561-.54.551.551,0,0,0-.561.54A.551.551,0,0,0-10.353-9.832Z" transform="translate(18.346 14.602)"/>
  <path id="ellipse4216" d="M-10.583-11.5a.928.928,0,0,1,.917.937.928.928,0,0,1-.917.937.928.928,0,0,1-.917-.937A.928.928,0,0,1-10.583-11.5Zm0,1.287a.341.341,0,0,0,.33-.35.341.341,0,0,0-.33-.35.341.341,0,0,0-.33.35A.341.341,0,0,0-10.583-10.213Z" transform="translate(17.31 12.963)"/>
  <path id="ellipse4218" d="M-10.583-11.5a.928.928,0,0,1,.917.937.928.928,0,0,1-.917.937.928.928,0,0,1-.917-.937A.928.928,0,0,1-10.583-11.5Zm0,1.287a.341.341,0,0,0,.33-.35.341.341,0,0,0-.33-.35.341.341,0,0,0-.33.35A.341.341,0,0,0-10.583-10.213Z" transform="translate(14.696 12.963)"/>
  <path id="path4231" d="M163.819,192.1h5.468a.51.51,0,0,1,.286.088,6.269,6.269,0,0,1,.907.734,5.747,5.747,0,0,1,.7,1.009,5.373,5.373,0,0,1,.441.973,4.828,4.828,0,0,1,.266,1.253,5.974,5.974,0,0,1-.134,1.64,5.189,5.189,0,0,1-.533,1.3,4.174,4.174,0,0,1-.584.811,6.456,6.456,0,0,1-.876.832,5.389,5.389,0,0,1-1.065.664,9.335,9.335,0,0,1-1.257.394l-.054.01a5.754,5.754,0,0,1-.7.04,4.577,4.577,0,0,1-1.509-.225c-.095-.033-.18-.06-.263-.086a4.518,4.518,0,0,1-.764-.3,5.145,5.145,0,0,1-1.471-1.075,6.193,6.193,0,0,1-1.271-2.105,5.285,5.285,0,0,1-.27-1.958,4.732,4.732,0,0,1,.314-1.488,5.7,5.7,0,0,1,.61-1.1,4.845,4.845,0,0,1,.869-.923,4.182,4.182,0,0,1,.654-.422A.51.51,0,0,1,163.819,192.1Zm5.308,1.02h-5.178a2.854,2.854,0,0,0-.368.245,3.777,3.777,0,0,0-.664.692,4.888,4.888,0,0,0-.511.9,3.717,3.717,0,0,0-.249,1.166,4.274,4.274,0,0,0,.212,1.581,5.164,5.164,0,0,0,1.061,1.755,4.14,4.14,0,0,0,1.182.855,3.516,3.516,0,0,0,.61.239c.092.029.187.059.293.1a3.627,3.627,0,0,0,1.171.167,5.069,5.069,0,0,0,.538-.028,8.272,8.272,0,0,0,1.045-.323,4.347,4.347,0,0,0,.865-.543,5.485,5.485,0,0,0,.732-.7,3.181,3.181,0,0,0,.461-.637,4.218,4.218,0,0,0,.432-1.037,5.016,5.016,0,0,0,.107-1.335,3.851,3.851,0,0,0-.217-1,4.383,4.383,0,0,0-.364-.8,4.64,4.64,0,0,0-.565-.819A4.591,4.591,0,0,0,169.127,193.123Z" transform="translate(-161.133 -192.103)"/>
  <path id="path4151" d="M-9.865-11.5A1.647,1.647,0,0,1-8.231-9.845,1.647,1.647,0,0,1-9.865-8.19,1.647,1.647,0,0,1-11.5-9.845,1.647,1.647,0,0,1-9.865-11.5Zm0,2.723A1.059,1.059,0,0,0-8.817-9.845a1.059,1.059,0,0,0-1.048-1.068,1.059,1.059,0,0,0-1.048,1.068A1.059,1.059,0,0,0-9.865-8.777Z" transform="translate(13.033 22.197)"/>
  <path id="ellipse4204" d="M-9.865-11.5A1.647,1.647,0,0,1-8.231-9.845,1.647,1.647,0,0,1-9.865-8.19,1.647,1.647,0,0,1-11.5-9.845,1.647,1.647,0,0,1-9.865-11.5Zm0,2.723A1.059,1.059,0,0,0-8.817-9.845a1.059,1.059,0,0,0-1.048-1.068,1.059,1.059,0,0,0-1.048,1.068A1.059,1.059,0,0,0-9.865-8.777Z" transform="translate(17.416 22.157)"/>
  <path id="rect4235" d="M-12.39-15.225h5.026A2.839,2.839,0,0,1-4.529-12.39,2.839,2.839,0,0,1-7.364-9.555H-12.39a2.839,2.839,0,0,1-2.835-2.835A2.839,2.839,0,0,1-12.39-15.225Zm5.026,4.894A2.061,2.061,0,0,0-5.305-12.39a2.061,2.061,0,0,0-2.059-2.059H-12.39a2.061,2.061,0,0,0-2.059,2.059,2.061,2.061,0,0,0,2.059,2.059Z" transform="translate(15.236 24.762)"/>
  <path id="path4237" d="M295.636,549.63l-4.1-.04.006-.587,4.1.04Z" transform="translate(-288.208 -539.901)"/>
</svg>
