<svg id="layer1" xmlns="http://www.w3.org/2000/svg" width="10.764" height="9.677" viewBox="0 0 10.764 9.677">
  <path id="Union_8" data-name="Union 8" d="M4.044,9.454c-.095-.033-.18-.06-.263-.086a4.542,4.542,0,0,1-.764-.3A5.145,5.145,0,0,1,1.546,8,6.143,6.143,0,0,1,.275,5.909,5.216,5.216,0,0,1,0,3.964,4.673,4.673,0,0,1,.318,2.486a5.65,5.65,0,0,1,.61-1.092A4.833,4.833,0,0,1,1.8.476,4.183,4.183,0,0,1,2.451.057.513.513,0,0,1,2.685,0H8.154A.512.512,0,0,1,8.44.087a6.251,6.251,0,0,1,.907.729,5.71,5.71,0,0,1,.7,1,5.314,5.314,0,0,1,.441.966,4.766,4.766,0,0,1,.266,1.244,5.894,5.894,0,0,1-.134,1.63,5.147,5.147,0,0,1-.533,1.287,4.152,4.152,0,0,1-.584.806,6.447,6.447,0,0,1-.876.826,5.4,5.4,0,0,1-1.065.659A9.375,9.375,0,0,1,6.3,9.628a.487.487,0,0,1-.054.01,5.789,5.789,0,0,1-.7.039A4.6,4.6,0,0,1,4.044,9.454Zm-1.6-8.2a3.759,3.759,0,0,0-.664.688,4.848,4.848,0,0,0-.511.9A3.672,3.672,0,0,0,1.024,4a4.22,4.22,0,0,0,.213,1.57A5.123,5.123,0,0,0,2.3,7.315a4.135,4.135,0,0,0,1.182.85,3.534,3.534,0,0,0,.61.237c.092.029.188.059.293.1a3.648,3.648,0,0,0,1.171.166,5.071,5.071,0,0,0,.538-.028,8.3,8.3,0,0,0,1.046-.321A4.348,4.348,0,0,0,8,7.776a5.469,5.469,0,0,0,.732-.692A3.165,3.165,0,0,0,9.2,6.452a4.177,4.177,0,0,0,.432-1.03A4.954,4.954,0,0,0,9.736,4.1,3.8,3.8,0,0,0,9.519,3.1a4.34,4.34,0,0,0-.364-.792A4.616,4.616,0,0,0,8.591,1.5a4.576,4.576,0,0,0-.6-.484H2.816A2.846,2.846,0,0,0,2.448,1.257ZM5.6,6.439a1.147,1.147,0,1,1,1.147,1.12A1.135,1.135,0,0,1,5.6,6.439Zm.587,0A.561.561,0,1,0,6.746,5.9.55.55,0,0,0,6.186,6.439Zm-3.321,0a1.147,1.147,0,1,1,1.147,1.12A1.135,1.135,0,0,1,2.865,6.439Zm.587,0A.561.561,0,1,0,4.012,5.9.55.55,0,0,0,3.452,6.439ZM6.846,4.2a1.148,1.148,0,1,1,1.147,1.12A1.135,1.135,0,0,1,6.846,4.2Zm.587,0a.561.561,0,1,0,.56-.537A.55.55,0,0,0,7.433,4.2Zm-3.2,0a1.148,1.148,0,1,1,1.147,1.12A1.135,1.135,0,0,1,4.232,4.2Zm.587,0a.561.561,0,1,0,.561-.537A.55.55,0,0,0,4.819,4.2Zm-3.24,0a1.147,1.147,0,1,1,1.147,1.12A1.135,1.135,0,0,1,1.579,4.2Zm.587,0a.561.561,0,1,0,.56-.537A.55.55,0,0,0,2.165,4.2ZM5.81,2.385a.917.917,0,1,1,.917.931A.925.925,0,0,1,5.81,2.385Zm.587,0a.33.33,0,1,0,.33-.348A.34.34,0,0,0,6.4,2.385Zm-3.2,0a.917.917,0,1,1,.917.931A.925.925,0,0,1,3.2,2.385Zm.587,0a.331.331,0,1,0,.33-.348A.34.34,0,0,0,3.783,2.385Z" transform="translate(0 0)"/>
</svg>
