<svg xmlns="http://www.w3.org/2000/svg" xmlns:xlink="http://www.w3.org/1999/xlink" width="141.063" height="32" viewBox="0 0 141.063 32"><defs><linearGradient id="a" x1="0.389" y1="0.878" x2="0.876" y2="-0.042" gradientUnits="objectBoundingBox"><stop offset="0" stop-color="#fff"/><stop offset="0.31" stop-color="#aab6bd"/><stop offset="1" stop-color="#004141"/></linearGradient><linearGradient id="b" x1="0.806" y1="0.676" x2="0.029" y2="-0.097" gradientUnits="objectBoundingBox"><stop offset="0" stop-color="#fff"/><stop offset="0.26" stop-color="#a7afbf"/><stop offset="1" stop-color="#001a30"/></linearGradient><radialGradient id="c" cx="0.118" cy="0.228" r="1.576" gradientTransform="translate(0.059) scale(0.502 1)" gradientUnits="objectBoundingBox"><stop offset="0.07" stop-color="#fff"/><stop offset="0.16" stop-color="#f8faf9"/><stop offset="0.27" stop-color="#e7efeb"/><stop offset="0.41" stop-color="#cbdcd3"/><stop offset="0.55" stop-color="#a3c1b2"/><stop offset="0.71" stop-color="#709f88"/><stop offset="0.87" stop-color="#337655"/><stop offset="1" stop-color="#00542a"/></radialGradient><radialGradient id="d" cx="0.655" cy="0.071" r="0.986" gradientTransform="translate(-0.221) scale(1.337 1)" gradientUnits="objectBoundingBox"><stop offset="0" stop-color="#fff"/><stop offset="0.26" stop-color="#fcfdfc"/><stop offset="0.4" stop-color="#f4f6f5"/><stop offset="0.51" stop-color="#e7ebe8"/><stop offset="0.6" stop-color="#d4dbd6"/><stop offset="0.68" stop-color="#bbc6bf"/><stop offset="0.76" stop-color="#9cada2"/><stop offset="0.83" stop-color="#778f80"/><stop offset="0.9" stop-color="#4d6c58"/><stop offset="0.96" stop-color="#1e452c"/><stop offset="1" stop-color="#002c10"/></radialGradient></defs><g transform="translate(0.5 0.372)"><g transform="translate(39.611 6.677)"><g transform="translate(0.005)"><path d="M121.7,34.862a2.843,2.843,0,0,0-2.9-2.772H105.739a.967.967,0,0,0-.969.969V44.4a.967.967,0,0,0,.969.969h13.068a2.846,2.846,0,0,0,2.9-2.772V34.867Zm-1.938,6.758a1.859,1.859,0,0,1-1.928,1.8H106.7v-9.4h11.135a1.859,1.859,0,0,1,1.928,1.8V41.62Z" transform="translate(-104.77 -32.086)" fill="#fff"/><path d="M281.837,32.09a1.332,1.332,0,0,0-.745.354L274.26,39.13l-6.878-6.748a.969.969,0,0,0-1.662.677V44.4a.969.969,0,1,0,1.938,0v-9.03l5.909,5.8a.97.97,0,0,0,1.37.01l5.925-5.8V44.4a.969.969,0,1,0,1.938,0V33.059a.967.967,0,0,0-.969-.969" transform="translate(-181.854 -32.086)" fill="#fff"/><path d="M242.916,43.961l-7.582-11.4a.969.969,0,0,0-1.678.969l2.829,4.252H230.78a.778.778,0,0,0-.109.01.963.963,0,0,0-.818.479l-3.741,5.654a.969.969,0,0,0,1.678.969l3.423-5.174h6.555l3.465,5.205a.969.969,0,1,0,1.678-.969" transform="translate(-162.822 -32.082)" fill="#fff"/><path d="M188.03,38.76v5.633a.9.9,0,0,0,.078.375.966.966,0,0,0,.891.594h15a.969.969,0,0,0,0-1.938H189.968V39.729h9.546a.969.969,0,1,0,0-1.938H189a.9.9,0,0,0-.375.078.961.961,0,0,0-.589.891m16.935-5.7A.967.967,0,0,0,204,32.09H189a.969.969,0,1,0,0,1.938h15a.967.967,0,0,0,.969-.969" transform="translate(-144.646 -32.086)" fill="#fff"/><path d="M163.525,40.563a2.666,2.666,0,0,0-.719-1.8,2.676,2.676,0,0,0,.719-1.8V34.862a2.843,2.843,0,0,0-2.9-2.772H147.559a.969.969,0,0,0,0,1.938h12.1a1.859,1.859,0,0,1,1.928,1.8v.156a1.859,1.859,0,0,1-1.928,1.8h-12.1a.967.967,0,0,0-.969.969v5.612a.985.985,0,1,0,1.97,0V39.724h11.094a1.9,1.9,0,0,1,1.891,1.443v3.2a.985.985,0,1,0,1.97,0V40.557Z" transform="translate(-124.799 -32.086)" fill="#fff"/></g><g transform="translate(0 17.147)"><path d="M104.76,69.865V65.619a.45.45,0,0,1,.459-.459h3a.406.406,0,0,1,0,.813h-2.548v1.339h2.22a.411.411,0,0,1,.406.412.4.4,0,0,1-.406.4h-2.22v1.386h2.585a.406.406,0,0,1,0,.813h-3.038a.45.45,0,0,1-.459-.459Z" transform="translate(-104.76 -65.071)" fill="#fff"/><path d="M125.27,65.554a.456.456,0,0,1,.459-.459h.094a.582.582,0,0,1,.474.266l2.579,3.34V65.533a.443.443,0,0,1,.443-.443.447.447,0,0,1,.448.443v4.335a.44.44,0,0,1-.443.448h-.036a.581.581,0,0,1-.474-.271l-2.652-3.434v3.272a.443.443,0,0,1-.443.443.447.447,0,0,1-.448-.443V65.559Z" transform="translate(-114.583 -65.038)" fill="#fff"/><path d="M147.48,69.865V65.619a.45.45,0,0,1,.459-.459h3a.406.406,0,1,1,0,.813h-2.553v1.339h2.22a.411.411,0,0,1,.406.412.4.4,0,0,1-.406.4h-2.22v1.386h2.59a.406.406,0,0,1,0,.813h-3.038a.45.45,0,0,1-.459-.459Z" transform="translate(-125.22 -65.071)" fill="#fff"/><path d="M167.99,65.619a.45.45,0,0,1,.459-.459h1.845a2.1,2.1,0,0,1,1.49.516,1.568,1.568,0,0,1,.427,1.115v.016a1.531,1.531,0,0,1-1.172,1.542l.99,1.245a.527.527,0,0,1,.146.349.429.429,0,0,1-.433.422.515.515,0,0,1-.443-.234l-1.256-1.6H168.9v1.386a.445.445,0,0,1-.448.448.454.454,0,0,1-.459-.448V65.629Zm2.235,2.1c.651,0,1.063-.339,1.063-.865v-.016c0-.552-.4-.855-1.068-.855H168.9v1.73h1.329Z" transform="translate(-135.043 -65.071)" fill="#fff"/><path d="M188.81,67.674v-.016a2.629,2.629,0,0,1,2.663-2.668,2.79,2.79,0,0,1,1.761.521.463.463,0,0,1,.182.37.448.448,0,0,1-.448.448.471.471,0,0,1-.281-.1,1.953,1.953,0,0,0-1.251-.406,1.746,1.746,0,0,0-1.673,1.819v.016A1.723,1.723,0,0,0,191.52,69.5a2.121,2.121,0,0,0,1.245-.391v-.964h-1.016a.394.394,0,1,1,0-.787h1.438a.45.45,0,0,1,.459.459V69.19a.62.62,0,0,1-.318.573,3.274,3.274,0,0,1-1.834.563,2.558,2.558,0,0,1-2.673-2.652Z" transform="translate(-145.014 -64.99)" fill="#fff"/><path d="M212.141,68.284l-1.777-2.439a.578.578,0,0,1-.1-.318.438.438,0,0,1,.459-.432.523.523,0,0,1,.443.271L212.6,67.44l1.459-2.079a.52.52,0,0,1,.432-.271.43.43,0,0,1,.443.443.538.538,0,0,1-.125.323l-1.761,2.413v1.615a.447.447,0,0,1-.459.448.438.438,0,0,1-.448-.448V68.289Z" transform="translate(-155.287 -65.038)" fill="#fff"/></g></g><g transform="translate(-0.5 -0.372)"><path d="M21.3,55.554A10.537,10.537,0,0,1,15.964,54.1a10.537,10.537,0,0,1-5.332,1.451A10.654,10.654,0,0,1,0,44.88a15.926,15.926,0,0,0,31.736,2A10.641,10.641,0,0,1,21.3,55.558Z" transform="translate(0 -28.88)" fill="#03a9c5"/><path d="M10.632,36.275a10.537,10.537,0,0,0,5.332-1.451,10.681,10.681,0,0,1,0-18.453,10.537,10.537,0,0,0-5.332-1.451,10.679,10.679,0,0,0,0,21.359Z" transform="translate(0 -9.601)" fill="#008782"/><path d="M10.632,5.323a10.537,10.537,0,0,1,5.332,1.451A10.537,10.537,0,0,1,21.3,5.323,10.644,10.644,0,0,1,31.736,14,15.926,15.926,0,0,0,0,16,10.655,10.655,0,0,1,10.632,5.323Z" fill="#52ae32"/><path d="M50.3,14.93a10.537,10.537,0,0,0-5.332,1.451,10.681,10.681,0,0,1,0,18.453A10.537,10.537,0,0,0,50.3,36.285,10.644,10.644,0,0,0,60.742,27.6a15.6,15.6,0,0,0,0-3.986A10.641,10.641,0,0,0,50.3,14.937Z" transform="translate(-29.006 -9.607)" fill="#a9f571"/><path d="M10.632,36.275a10.537,10.537,0,0,0,5.332-1.451,10.681,10.681,0,0,1,0-18.453,10.537,10.537,0,0,0-5.332-1.451,10.679,10.679,0,0,0,0,21.359Z" transform="translate(0 -9.601)" fill="url(#a)" style="mix-blend-mode:multiply;isolation:isolate"/><path d="M21.3,55.554A10.537,10.537,0,0,1,15.964,54.1a10.537,10.537,0,0,1-5.332,1.451A10.654,10.654,0,0,1,0,44.88a15.926,15.926,0,0,0,31.736,2A10.641,10.641,0,0,1,21.3,55.558Z" transform="translate(0 -28.88)" fill="url(#b)" style="mix-blend-mode:multiply;isolation:isolate"/><path d="M10.632,5.323a10.537,10.537,0,0,1,5.332,1.451A10.537,10.537,0,0,1,21.3,5.323,10.644,10.644,0,0,1,31.736,14,15.926,15.926,0,0,0,0,16,10.655,10.655,0,0,1,10.632,5.323Z" opacity="0.73" fill="url(#c)" style="mix-blend-mode:multiply;isolation:isolate"/><path d="M50.3,14.93a10.537,10.537,0,0,0-5.332,1.451,10.681,10.681,0,0,1,0,18.453A10.537,10.537,0,0,0,50.3,36.285,10.644,10.644,0,0,0,60.742,27.6a15.6,15.6,0,0,0,0-3.986A10.641,10.641,0,0,0,50.3,14.937Z" transform="translate(-29.006 -9.607)" opacity="0.73" fill="url(#d)" style="mix-blend-mode:multiply;isolation:isolate"/></g></g></svg>