<svg xmlns="http://www.w3.org/2000/svg" width="32" height="32" viewBox="0 0 32 32">
  <path id="icon-mug-hot" d="M25,12H2a2,2,0,0,0-2,2V26a6,6,0,0,0,6,6H18a6,6,0,0,0,6-6h1a7,7,0,0,0,0-14ZM22,26a4,4,0,0,1-4,4H6a4,4,0,0,1-4-4V14H22Zm3-2H24V14h1a5,5,0,0,1,0,10ZM6.55,5.894A2.608,2.608,0,0,1,8,8.238V9a1,1,0,0,0,2,0V8.238A4.6,4.6,0,0,0,7.448,4.107,2.61,2.61,0,0,1,6,1.764V1A1,1,0,0,0,4,1v.764A4.6,4.6,0,0,0,6.55,5.894Zm8,0A2.608,2.608,0,0,1,16,8.238V9a1,1,0,0,0,2,0V8.238a4.6,4.6,0,0,0-2.552-4.131A2.61,2.61,0,0,1,14,1.764V1a1,1,0,0,0-2,0v.764A4.6,4.6,0,0,0,14.55,5.894Z"/>
</svg>
