<svg xmlns="http://www.w3.org/2000/svg" width="19.354" height="27.342" viewBox="0 0 19.354 27.342"><path d="M-9.437-11.5A2.047,2.047,0,0,1-7.375-9.474,2.047,2.047,0,0,1-9.437-7.447,2.047,2.047,0,0,1-11.5-9.474,2.047,2.047,0,0,1-9.437-11.5Zm0,3A.991.991,0,0,0-8.43-9.474a.991.991,0,0,0-1.008-.972.991.991,0,0,0-1.008.972A.991.991,0,0,0-9.437-8.5Z" transform="translate(21.568 21.126)"/><path d="M-9.437-11.5A2.047,2.047,0,0,1-7.375-9.474,2.047,2.047,0,0,1-9.437-7.447,2.047,2.047,0,0,1-11.5-9.474,2.047,2.047,0,0,1-9.437-11.5Zm0,3A.991.991,0,0,0-8.43-9.474a.991.991,0,0,0-1.008-.972.991.991,0,0,0-1.008.972A.991.991,0,0,0-9.437-8.5Z" transform="translate(16.652 21.126)"/><path d="M-9.437-11.5A2.047,2.047,0,0,1-7.375-9.474,2.047,2.047,0,0,1-9.437-7.447,2.047,2.047,0,0,1-11.5-9.474,2.047,2.047,0,0,1-9.437-11.5Zm0,3A.991.991,0,0,0-8.43-9.474a.991.991,0,0,0-1.008-.972.991.991,0,0,0-1.008.972A.991.991,0,0,0-9.437-8.5Z" transform="translate(14.338 17.078)"/><path d="M-9.437-11.5A2.047,2.047,0,0,1-7.375-9.474,2.047,2.047,0,0,1-9.437-7.447,2.047,2.047,0,0,1-11.5-9.474,2.047,2.047,0,0,1-9.437-11.5Zm0,3A.991.991,0,0,0-8.43-9.474a.991.991,0,0,0-1.008-.972.991.991,0,0,0-1.008.972A.991.991,0,0,0-9.437-8.5Z" transform="translate(19.11 17.078)"/><path d="M-9.437-11.5A2.047,2.047,0,0,1-7.375-9.474,2.047,2.047,0,0,1-9.437-7.447,2.047,2.047,0,0,1-11.5-9.474,2.047,2.047,0,0,1-9.437-11.5Zm0,3A.991.991,0,0,0-8.43-9.474a.991.991,0,0,0-1.008-.972.991.991,0,0,0-1.008.972A.991.991,0,0,0-9.437-8.5Z" transform="translate(23.809 17.078)"/><path d="M-9.852-11.5A1.668,1.668,0,0,1-8.2-9.816,1.668,1.668,0,0,1-9.852-8.131,1.668,1.668,0,0,1-11.5-9.816,1.668,1.668,0,0,1-9.852-11.5Zm0,2.314a.613.613,0,0,0,.593-.63.613.613,0,0,0-.593-.63.613.613,0,0,0-.593.63A.613.613,0,0,0-9.852-9.186Z" transform="translate(21.946 14.131)"/><path d="M-9.852-11.5A1.668,1.668,0,0,1-8.2-9.816,1.668,1.668,0,0,1-9.852-8.131,1.668,1.668,0,0,1-11.5-9.816,1.668,1.668,0,0,1-9.852-11.5Zm0,2.314a.613.613,0,0,0,.593-.63.613.613,0,0,0-.593-.63.613.613,0,0,0-.593.63A.613.613,0,0,0-9.852-9.186Z" transform="translate(17.247 14.131)"/><path d="M165.962,192.1h9.832a.917.917,0,0,1,.514.157,11.272,11.272,0,0,1,1.631,1.32,10.331,10.331,0,0,1,1.259,1.814,9.655,9.655,0,0,1,.792,1.749,8.679,8.679,0,0,1,.478,2.252,10.74,10.74,0,0,1-.241,2.95,9.331,9.331,0,0,1-.958,2.328,7.506,7.506,0,0,1-1.05,1.458,11.611,11.611,0,0,1-1.575,1.5,9.688,9.688,0,0,1-1.915,1.193,16.779,16.779,0,0,1-2.26.708.914.914,0,0,1-.1.018,10.359,10.359,0,0,1-1.255.071,8.229,8.229,0,0,1-2.713-.4c-.171-.06-.324-.108-.472-.155a8.12,8.12,0,0,1-1.374-.543,9.252,9.252,0,0,1-2.646-1.932,11.134,11.134,0,0,1-2.286-3.785,9.5,9.5,0,0,1-.486-3.52,8.507,8.507,0,0,1,.564-2.675,10.245,10.245,0,0,1,1.1-1.977,8.716,8.716,0,0,1,1.563-1.66,7.524,7.524,0,0,1,1.176-.759A.917.917,0,0,1,165.962,192.1Zm9.544,1.834H166.2a5.133,5.133,0,0,0-.662.44,6.792,6.792,0,0,0-1.193,1.245,8.792,8.792,0,0,0-.919,1.624,6.682,6.682,0,0,0-.448,2.1,7.685,7.685,0,0,0,.382,2.842,9.284,9.284,0,0,0,1.907,3.155,7.442,7.442,0,0,0,2.126,1.538,6.322,6.322,0,0,0,1.1.429c.165.052.337.107.528.174a6.521,6.521,0,0,0,2.1.3,9.107,9.107,0,0,0,.968-.05,14.867,14.867,0,0,0,1.88-.581,7.815,7.815,0,0,0,1.555-.976,9.866,9.866,0,0,0,1.317-1.252,5.721,5.721,0,0,0,.829-1.145,7.582,7.582,0,0,0,.777-1.865,9.018,9.018,0,0,0,.193-2.4,6.926,6.926,0,0,0-.389-1.8,7.879,7.879,0,0,0-.654-1.432,5.618,5.618,0,0,0-2.089-2.348Z" transform="translate(-161.133 -192.103)"/><path d="M-8.561-11.5A2.961,2.961,0,0,1-5.622-8.525,2.961,2.961,0,0,1-8.561-5.549,2.961,2.961,0,0,1-11.5-8.525,2.961,2.961,0,0,1-8.561-11.5Zm0,4.9A1.9,1.9,0,0,0-6.677-8.525a1.9,1.9,0,0,0-1.884-1.921,1.9,1.9,0,0,0-1.884,1.921A1.9,1.9,0,0,0-8.561-6.6Z" transform="translate(14.257 30.733)"/><path d="M-8.561-11.5A2.961,2.961,0,0,1-5.622-8.525,2.961,2.961,0,0,1-8.561-5.549,2.961,2.961,0,0,1-11.5-8.525,2.961,2.961,0,0,1-8.561-11.5Zm0,4.9A1.9,1.9,0,0,0-6.677-8.525a1.9,1.9,0,0,0-1.884-1.921,1.9,1.9,0,0,0-1.884,1.921A1.9,1.9,0,0,0-8.561-6.6Z" transform="translate(22.137 30.66)"/><path d="M-10.128-15.225h9.037a5.1,5.1,0,0,1,5.1,5.1,5.1,5.1,0,0,1-5.1,5.1h-9.037a5.1,5.1,0,0,1-5.1-5.1A5.1,5.1,0,0,1-10.128-15.225Zm9.037,8.8a3.706,3.706,0,0,0,3.7-3.7,3.706,3.706,0,0,0-3.7-3.7h-9.037a3.706,3.706,0,0,0-3.7,3.7,3.706,3.706,0,0,0,3.7,3.7Z" transform="translate(15.245 32.372)"/><path d="M298.908,550.131l-7.374-.072.01-1.055,7.374.072Z" transform="translate(-285.554 -532.637)"/></svg>