<svg xmlns="http://www.w3.org/2000/svg" width="19.353" height="17.513" viewBox="0 0 19.353 17.513"><path d="M-9.437-11.5A2.047,2.047,0,0,1-7.375-9.474,2.047,2.047,0,0,1-9.437-7.447,2.047,2.047,0,0,1-11.5-9.474,2.047,2.047,0,0,1-9.437-11.5Zm0,3A.991.991,0,0,0-8.43-9.474a.991.991,0,0,0-1.008-.972.991.991,0,0,0-1.008.972A.991.991,0,0,0-9.437-8.5Z" transform="translate(21.568 21.126)"/><path d="M-9.437-11.5A2.047,2.047,0,0,1-7.375-9.474,2.047,2.047,0,0,1-9.437-7.447,2.047,2.047,0,0,1-11.5-9.474,2.047,2.047,0,0,1-9.437-11.5Zm0,3A.991.991,0,0,0-8.43-9.474a.991.991,0,0,0-1.008-.972.991.991,0,0,0-1.008.972A.991.991,0,0,0-9.437-8.5Z" transform="translate(16.652 21.126)"/><path d="M-9.437-11.5A2.047,2.047,0,0,1-7.375-9.474,2.047,2.047,0,0,1-9.437-7.447,2.047,2.047,0,0,1-11.5-9.474,2.047,2.047,0,0,1-9.437-11.5Zm0,3A.991.991,0,0,0-8.43-9.474a.991.991,0,0,0-1.008-.972.991.991,0,0,0-1.008.972A.991.991,0,0,0-9.437-8.5Z" transform="translate(14.338 17.078)"/><path d="M-9.437-11.5A2.047,2.047,0,0,1-7.375-9.474,2.047,2.047,0,0,1-9.437-7.447,2.047,2.047,0,0,1-11.5-9.474,2.047,2.047,0,0,1-9.437-11.5Zm0,3A.991.991,0,0,0-8.43-9.474a.991.991,0,0,0-1.008-.972.991.991,0,0,0-1.008.972A.991.991,0,0,0-9.437-8.5Z" transform="translate(19.11 17.078)"/><path d="M-9.437-11.5A2.047,2.047,0,0,1-7.375-9.474,2.047,2.047,0,0,1-9.437-7.447,2.047,2.047,0,0,1-11.5-9.474,2.047,2.047,0,0,1-9.437-11.5Zm0,3A.991.991,0,0,0-8.43-9.474a.991.991,0,0,0-1.008-.972.991.991,0,0,0-1.008.972A.991.991,0,0,0-9.437-8.5Z" transform="translate(23.809 17.078)"/><path d="M-9.852-11.5A1.668,1.668,0,0,1-8.2-9.816,1.668,1.668,0,0,1-9.852-8.131,1.668,1.668,0,0,1-11.5-9.816,1.668,1.668,0,0,1-9.852-11.5Zm0,2.314a.613.613,0,0,0,.593-.63.613.613,0,0,0-.593-.63.613.613,0,0,0-.593.63A.613.613,0,0,0-9.852-9.186Z" transform="translate(21.946 14.131)"/><path d="M-9.852-11.5A1.668,1.668,0,0,1-8.2-9.816,1.668,1.668,0,0,1-9.852-8.131,1.668,1.668,0,0,1-11.5-9.816,1.668,1.668,0,0,1-9.852-11.5Zm0,2.314a.613.613,0,0,0,.593-.63.613.613,0,0,0-.593-.63.613.613,0,0,0-.593.63A.613.613,0,0,0-9.852-9.186Z" transform="translate(17.247 14.131)"/><path d="M162.809,311.921h9.832a.917.917,0,0,1,.514.157,11.274,11.274,0,0,1,1.631,1.32,10.33,10.33,0,0,1,1.259,1.814,9.655,9.655,0,0,1,.792,1.749,8.679,8.679,0,0,1,.478,2.252,10.741,10.741,0,0,1-.24,2.95,9.332,9.332,0,0,1-.958,2.328,7.505,7.505,0,0,1-1.05,1.458,11.61,11.61,0,0,1-1.575,1.5,9.69,9.69,0,0,1-1.915,1.193,16.784,16.784,0,0,1-2.26.708.92.92,0,0,1-.1.018,10.356,10.356,0,0,1-1.255.071,8.23,8.23,0,0,1-2.713-.4c-.171-.06-.324-.108-.472-.155a8.12,8.12,0,0,1-1.374-.543,9.251,9.251,0,0,1-2.646-1.932,11.133,11.133,0,0,1-2.286-3.785,9.5,9.5,0,0,1-.486-3.52,8.508,8.508,0,0,1,.564-2.675,10.245,10.245,0,0,1,1.1-1.977,8.717,8.717,0,0,1,1.563-1.66,7.521,7.521,0,0,1,1.176-.759A.917.917,0,0,1,162.809,311.921Zm9.544,1.834h-9.309a5.127,5.127,0,0,0-.662.44,6.791,6.791,0,0,0-1.193,1.245,8.79,8.79,0,0,0-.919,1.625,6.682,6.682,0,0,0-.448,2.1A7.685,7.685,0,0,0,160.2,322a9.285,9.285,0,0,0,1.907,3.155,7.443,7.443,0,0,0,2.126,1.538,6.314,6.314,0,0,0,1.1.429c.165.052.337.107.528.174a6.521,6.521,0,0,0,2.1.3,9.107,9.107,0,0,0,.968-.05,14.866,14.866,0,0,0,1.88-.581,7.813,7.813,0,0,0,1.555-.976,9.863,9.863,0,0,0,1.317-1.252,5.723,5.723,0,0,0,.829-1.145,7.582,7.582,0,0,0,.777-1.865,9.017,9.017,0,0,0,.193-2.4,6.926,6.926,0,0,0-.389-1.8,7.879,7.879,0,0,0-.654-1.432,8.34,8.34,0,0,0-1.015-1.473A8.257,8.257,0,0,0,172.353,313.755Z" transform="translate(-157.98 -311.921)"/></svg>