<svg xmlns="http://www.w3.org/2000/svg" width="36.001" height="32" viewBox="0 0 36.001 32">
  <path id="icon-restroom-simple" d="M35.963,22.725,33.156,12.9a4,4,0,0,0-3.85-2.9H26.691a4,4,0,0,0-3.846,2.9l-2.807,9.825A1,1,0,0,0,21,24h3v7a1,1,0,1,0,2,0V24h4v7a1,1,0,1,0,2,0V24h3A1,1,0,0,0,35.963,22.725ZM22.325,22l2.443-8.55A2.005,2.005,0,0,1,26.694,12h2.616a2,2,0,0,1,1.923,1.451L33.675,22ZM28,8a4,4,0,1,0-4-4A4,4,0,0,0,28,8Zm0-6a2,2,0,1,1-2,2A2,2,0,0,1,28,2ZM8,10H4a4,4,0,0,0-4,4v6a2,2,0,0,0,2,2v9a1,1,0,1,0,2,0V22H8v9a1,1,0,1,0,2,0V22a2,2,0,0,0,2-2V14A4,4,0,0,0,8,10Zm2,10H2V14a2,2,0,0,1,2-2H8a2,2,0,0,1,2,2ZM6,8A4,4,0,1,0,2,4,4,4,0,0,0,6,8ZM6,2A2,2,0,1,1,4,4,2,2,0,0,1,6,2ZM16,0a1,1,0,0,0-1,1V31a1,1,0,1,0,2,0V1A1,1,0,0,0,16,0Z"/>
</svg>
