<svg xmlns="http://www.w3.org/2000/svg" width="17.496" height="17.513" viewBox="0 0 17.496 17.513"><path d="M-29.656-32.5a2.9,2.9,0,0,1,2.844,2.944,2.9,2.9,0,0,1-2.844,2.944A2.9,2.9,0,0,1-32.5-29.556,2.9,2.9,0,0,1-29.656-32.5Zm0,4.068a1.079,1.079,0,0,0,1.024-1.124,1.079,1.079,0,0,0-1.024-1.124,1.079,1.079,0,0,0-1.024,1.124A1.079,1.079,0,0,0-29.656-28.432Z" transform="translate(42.353 38.405)"/><path d="M-29.656-32.5a2.9,2.9,0,0,1,2.844,2.944,2.9,2.9,0,0,1-2.844,2.944A2.9,2.9,0,0,1-32.5-29.556,2.9,2.9,0,0,1-29.656-32.5Zm0,4.068a1.079,1.079,0,0,0,1.024-1.124,1.079,1.079,0,0,0-1.024-1.124,1.079,1.079,0,0,0-1.024,1.124A1.079,1.079,0,0,0-29.656-28.432Z" transform="translate(34.556 38.405)"/><g transform="translate(6.659 1.832)"><path d="M-2.9-5A2.1,2.1,0,0,1-.8-2.9,2.1,2.1,0,0,1-2.9-.8,2.1,2.1,0,0,1-5-2.9,2.1,2.1,0,0,1-2.9-5Zm0,3.918A1.821,1.821,0,0,0-1.082-2.9,1.821,1.821,0,0,0-2.9-4.72,1.821,1.821,0,0,0-4.72-2.9,1.821,1.821,0,0,0-2.9-1.082Z" transform="translate(5 5)"/></g><path d="M-3.094-3.655a.572.572,0,0,1,.561.581.572.572,0,0,1-.561.581.572.572,0,0,1-.561-.581A.572.572,0,0,1-3.094-3.655Zm0,.957a.367.367,0,0,0,.356-.376.367.367,0,0,0-.356-.376.367.367,0,0,0-.356.376A.367.367,0,0,0-3.094-2.7Z" transform="translate(10.409 7.005)"/><path d="M-3.094-3.655a.572.572,0,0,1,.561.581.572.572,0,0,1-.561.581.572.572,0,0,1-.561-.581A.572.572,0,0,1-3.094-3.655Zm0,.957a.367.367,0,0,0,.356-.376.367.367,0,0,0-.356-.376.367.367,0,0,0-.356.376A.367.367,0,0,0-3.094-2.7Z" transform="translate(13.256 7.005)"/><path d="M-3.094-3.655a.572.572,0,0,1,.561.581.572.572,0,0,1-.561.581.572.572,0,0,1-.561-.581A.572.572,0,0,1-3.094-3.655Zm0,.957a.367.367,0,0,0,.356-.376.367.367,0,0,0-.356-.376.367.367,0,0,0-.356.376A.367.367,0,0,0-3.094-2.7Z" transform="translate(11.872 8.388)"/><g transform="translate(8.217 1.943)"><path d="M-3.094-3.655a.572.572,0,0,1,.561.581.572.572,0,0,1-.561.581.572.572,0,0,1-.561-.581A.572.572,0,0,1-3.094-3.655Zm0,.957a.367.367,0,0,0,.356-.376.367.367,0,0,0-.356-.376.367.367,0,0,0-.356.376A.367.367,0,0,0-3.094-2.7Z" transform="translate(3.655 3.655)"/></g><g transform="translate(6.659 11.627)"><path d="M-2.9-5A2.1,2.1,0,0,1-.8-2.9,2.1,2.1,0,0,1-2.9-.8,2.1,2.1,0,0,1-5-2.9,2.1,2.1,0,0,1-2.9-5Zm0,3.918A1.821,1.821,0,0,0-1.082-2.9,1.821,1.821,0,0,0-2.9-4.72,1.821,1.821,0,0,0-4.72-2.9,1.821,1.821,0,0,0-2.9-1.082Z" transform="translate(5 5)"/></g><path d="M-3.094-3.655a.572.572,0,0,1,.561.581.572.572,0,0,1-.561.581.572.572,0,0,1-.561-.581A.572.572,0,0,1-3.094-3.655Zm0,.957a.367.367,0,0,0,.356-.376.367.367,0,0,0-.356-.376.367.367,0,0,0-.356.376A.367.367,0,0,0-3.094-2.7Z" transform="translate(10.409 16.8)"/><path d="M-3.094-3.655a.572.572,0,0,1,.561.581.572.572,0,0,1-.561.581.572.572,0,0,1-.561-.581A.572.572,0,0,1-3.094-3.655Zm0,.957a.367.367,0,0,0,.356-.376.367.367,0,0,0-.356-.376.367.367,0,0,0-.356.376A.367.367,0,0,0-3.094-2.7Z" transform="translate(13.256 16.8)"/><path d="M-3.094-3.655a.572.572,0,0,1,.561.581.572.572,0,0,1-.561.581.572.572,0,0,1-.561-.581A.572.572,0,0,1-3.094-3.655Zm0,.957a.367.367,0,0,0,.356-.376.367.367,0,0,0-.356-.376.367.367,0,0,0-.356.376A.367.367,0,0,0-3.094-2.7Z" transform="translate(11.872 18.184)"/><g transform="translate(8.217 11.738)"><path d="M-3.094-3.655a.572.572,0,0,1,.561.581.572.572,0,0,1-.561.581.572.572,0,0,1-.561-.581A.572.572,0,0,1-3.094-3.655Zm0,.957a.367.367,0,0,0,.356-.376.367.367,0,0,0-.356-.376.367.367,0,0,0-.356.376A.367.367,0,0,0-3.094-2.7Z" transform="translate(3.655 3.655)"/></g><path d="M67.194,190.488a9.323,9.323,0,0,1,2.78.452,14.92,14.92,0,0,1,2.194,1.053l1.119-.249,1.722,1.722-.332,1.162a14.073,14.073,0,0,1,1.072,2.385,8.358,8.358,0,0,1,.228,2.494,9.59,9.59,0,0,1-.494,2.833,8.127,8.127,0,0,1-1.2,2.147,9.445,9.445,0,0,1-1.7,1.709,8.212,8.212,0,0,1-1.716,1.048,9.127,9.127,0,0,1-1.953.6,8.509,8.509,0,0,1-1.595.161h-.083a8.425,8.425,0,0,1-1.494-.13,8.259,8.259,0,0,1-1.569-.443,8.861,8.861,0,0,1-1.626-.844,9.8,9.8,0,0,1-1.886-1.56,7.648,7.648,0,0,1-2.041-4.267,9.1,9.1,0,0,1-.1-2.282,9.732,9.732,0,0,1,.512-2.257,16.315,16.315,0,0,1,.753-1.672l-.274-1.214,1.576-1.585,1.281.248A16.833,16.833,0,0,1,64.6,190.94a8.46,8.46,0,0,1,2.5-.452Zm4.892,2.039L72,192.478a15.727,15.727,0,0,0-2.178-1.057,8.822,8.822,0,0,0-2.629-.429h-.082a7.969,7.969,0,0,0-2.354.428,17.746,17.746,0,0,0-2.223,1.06l-.08.045-1.2-.232-1.191,1.2.254,1.122-.042.081a17.419,17.419,0,0,0-.765,1.684,9.249,9.249,0,0,0-.488,2.141,8.592,8.592,0,0,0,.1,2.156,7.149,7.149,0,0,0,1.917,4.009,9.316,9.316,0,0,0,1.792,1.479,8.354,8.354,0,0,0,1.533.8,7.755,7.755,0,0,0,1.473.416,7.92,7.92,0,0,0,1.4.122h.078a8.006,8.006,0,0,0,1.5-.151,8.637,8.637,0,0,0,1.846-.563,7.708,7.708,0,0,0,1.61-.984,8.942,8.942,0,0,0,1.61-1.617,7.628,7.628,0,0,0,1.123-2.012,9.1,9.1,0,0,0,.466-2.685,7.867,7.867,0,0,0-.212-2.344,14.814,14.814,0,0,0-1.076-2.36l-.051-.091.308-1.078L73.126,192.3Z" transform="translate(-58.491 -190.488)"/></svg>