<svg xmlns="http://www.w3.org/2000/svg" width="35.996" height="32" viewBox="0 0 35.996 32">
  <path id="icon-fork-knife" d="M35.546,6.269a1,1,0,0,0-1.385.284l-4.046,6.134c-1.7,2.51-4.022,3.29-6.756,2.246l-.625-.24L8.511,29.642a.962.962,0,0,1-.613.3.523.523,0,0,1-.414-.146L6.142,28.454a.527.527,0,0,1-.148-.428.931.931,0,0,1,.283-.6L21.244,13.206l-.23-.619A5.211,5.211,0,0,1,23.2,5.869l6.194-4.086a1,1,0,0,0-1.1-1.67l-6.2,4.1c-3.067,2.078-4.175,5.058-3.16,8.443L4.895,25.989A2.938,2.938,0,0,0,4,27.907a2.512,2.512,0,0,0,.731,1.965l1.344,1.342a2.485,2.485,0,0,0,1.783.733c.055,0,.114,0,.171,0A2.991,2.991,0,0,0,9.96,31.03L23.29,17.019c3.33,1.01,6.4-.136,8.487-3.222l4.055-6.144A.989.989,0,0,0,35.546,6.269ZM8.993,18.974a1,1,0,0,0,.342-1.939A10.92,10.92,0,0,1,2.309,8.894c-.754-3.4-.008-6.232.623-6.862a.375.375,0,0,1,.283-.08.885.885,0,0,1,.53.273L14.694,12.673a1,1,0,0,0,1.379-1.449L5.142.794A2.833,2.833,0,0,0,3.378-.041a2.363,2.363,0,0,0-1.86.66C.1,2.04-.412,5.866.358,9.331a12.845,12.845,0,0,0,8.293,9.58A1.123,1.123,0,0,0,8.993,18.974Zm15.467.25a1,1,0,0,0-1.379,1.447l6.474,6.18a1.14,1.14,0,0,1,.232,1.532L28.43,29.739a.751.751,0,0,1-.572.207,1.5,1.5,0,0,1-1.043-.527l-6.124-5.948A1,1,0,1,0,19.3,24.9l6.084,5.909a3.444,3.444,0,0,0,2.436,1.132.534.534,0,0,0,.061,0,2.742,2.742,0,0,0,1.965-.793L31.2,29.8a3.107,3.107,0,0,0-.25-4.376Zm-.987-9.505a1,1,0,0,0,.746.333.991.991,0,0,0,.666-.255L31.6,3.787A1,1,0,1,0,30.27,2.3L23.547,8.306A1,1,0,0,0,23.472,9.719Zm2.906,2.906a.991.991,0,0,0,.666.255,1,1,0,0,0,.746-.333L33.8,5.828a1,1,0,0,0-1.492-1.334L26.3,11.213A1,1,0,0,0,26.378,12.625Z" transform="translate(0 0.053)"/>
</svg>
