<svg xmlns="http://www.w3.org/2000/svg" xmlns:xlink="http://www.w3.org/1999/xlink" width="22.49" height="27.5" viewBox="0 0 22.49 27.5"><defs><filter id="a" x="0" y="0" width="34.5" height="37.384" filterUnits="userSpaceOnUse"><feOffset dy="2" input="SourceAlpha"/><feGaussianBlur stdDeviation="2" result="b"/><feFlood flood-opacity="0.161"/><feComposite operator="in" in2="b"/><feComposite in="SourceGraphic"/></filter><linearGradient id="c" x1="0.389" y1="0.878" x2="0.876" y2="-0.042" gradientUnits="objectBoundingBox"><stop offset="0" stop-color="#fff"/><stop offset="0.31" stop-color="#aab6bd"/><stop offset="1" stop-color="#004141"/></linearGradient><linearGradient id="d" x1="0.806" y1="0.676" x2="0.029" y2="-0.097" gradientUnits="objectBoundingBox"><stop offset="0" stop-color="#fff"/><stop offset="0.26" stop-color="#a7afbf"/><stop offset="1" stop-color="#001a30"/></linearGradient><radialGradient id="e" cx="0.118" cy="0.228" r="1.576" gradientTransform="translate(0.059) scale(0.502 1)" gradientUnits="objectBoundingBox"><stop offset="0.07" stop-color="#fff"/><stop offset="0.16" stop-color="#f8faf9"/><stop offset="0.27" stop-color="#e7efeb"/><stop offset="0.41" stop-color="#cbdcd3"/><stop offset="0.55" stop-color="#a3c1b2"/><stop offset="0.71" stop-color="#709f88"/><stop offset="0.87" stop-color="#337655"/><stop offset="1" stop-color="#00542a"/></radialGradient><radialGradient id="f" cx="0.655" cy="0.071" r="0.986" gradientTransform="translate(-0.221) scale(1.337 1)" gradientUnits="objectBoundingBox"><stop offset="0" stop-color="#fff"/><stop offset="0.26" stop-color="#fcfdfc"/><stop offset="0.4" stop-color="#f4f6f5"/><stop offset="0.51" stop-color="#e7ebe8"/><stop offset="0.6" stop-color="#d4dbd6"/><stop offset="0.68" stop-color="#bbc6bf"/><stop offset="0.76" stop-color="#9cada2"/><stop offset="0.83" stop-color="#778f80"/><stop offset="0.9" stop-color="#4d6c58"/><stop offset="0.96" stop-color="#1e452c"/><stop offset="1" stop-color="#002c10"/></radialGradient></defs><g transform="translate(0 0)"><ellipse cx="6.5" cy="2" rx="6.5" ry="2" transform="translate(4.75 23.5)" opacity="0.101"/><ellipse cx="3.5" cy="1" rx="3.5" ry="1" transform="translate(7.75 24.5)" opacity="0.101"/><g transform="matrix(1, 0, 0, 1, -6, -4)" filter="url(#a)"><path d="M11.25,0A11.054,11.054,0,0,1,22.5,10.846a10.7,10.7,0,0,1-3.286,7.661c-1.943,1.927-7.964,6.877-7.964,6.877s-5.829-4.867-7.964-6.877A10.542,10.542,0,0,1,0,10.846,11.054,11.054,0,0,1,11.25,0Z" transform="translate(6 4)" fill="#fff"/></g><g transform="translate(4.181 4.104)" opacity="0.3"><path d="M9.492,49.638a4.7,4.7,0,0,1-2.377-.647,4.7,4.7,0,0,1-2.377.647A4.749,4.749,0,0,1,0,44.88a7.1,7.1,0,0,0,14.145.89,4.743,4.743,0,0,1-4.653,3.869Z" transform="translate(0 -37.748)" fill="#03a9c5"/><path d="M4.739,24.438a4.7,4.7,0,0,0,2.377-.647,4.761,4.761,0,0,1,0-8.225,4.7,4.7,0,0,0-2.377-.647,4.76,4.76,0,0,0,0,9.52Z" transform="translate(0 -12.549)" fill="#008782"/><path d="M4.739,2.372a4.7,4.7,0,0,1,2.377.647,4.7,4.7,0,0,1,2.377-.647,4.744,4.744,0,0,1,4.653,3.869A7.1,7.1,0,0,0,0,7.132,4.749,4.749,0,0,1,4.739,2.372Z" fill="#52ae32"/><path d="M47.347,14.93a4.7,4.7,0,0,0-2.377.647,4.761,4.761,0,0,1,0,8.225,4.7,4.7,0,0,0,2.377.647A4.744,4.744,0,0,0,52,20.579,6.954,6.954,0,0,0,52,18.8a4.743,4.743,0,0,0-4.653-3.869Z" transform="translate(-37.855 -12.558)" fill="#a9f571"/><path d="M4.739,24.438a4.7,4.7,0,0,0,2.377-.647,4.761,4.761,0,0,1,0-8.225,4.7,4.7,0,0,0-2.377-.647,4.76,4.76,0,0,0,0,9.52Z" transform="translate(0 -12.549)" fill="url(#c)" style="mix-blend-mode:multiply;isolation:isolate"/><path d="M9.492,49.638a4.7,4.7,0,0,1-2.377-.647,4.7,4.7,0,0,1-2.377.647A4.749,4.749,0,0,1,0,44.88a7.1,7.1,0,0,0,14.145.89,4.743,4.743,0,0,1-4.653,3.869Z" transform="translate(0 -37.748)" fill="url(#d)" style="mix-blend-mode:multiply;isolation:isolate"/><path d="M4.739,2.372a4.7,4.7,0,0,1,2.377.647,4.7,4.7,0,0,1,2.377-.647,4.744,4.744,0,0,1,4.653,3.869A7.1,7.1,0,0,0,0,7.132,4.749,4.749,0,0,1,4.739,2.372Z" opacity="0.73" fill="url(#e)" style="mix-blend-mode:multiply;isolation:isolate"/><path d="M47.347,14.93a4.7,4.7,0,0,0-2.377.647,4.761,4.761,0,0,1,0,8.225,4.7,4.7,0,0,0,2.377.647A4.744,4.744,0,0,0,52,20.579,6.954,6.954,0,0,0,52,18.8a4.743,4.743,0,0,0-4.653-3.869Z" transform="translate(-37.855 -12.558)" opacity="0.73" fill="url(#f)" style="mix-blend-mode:multiply;isolation:isolate"/></g><g transform="translate(18 1.5)" fill="#c1c1c1" stroke="#fff" stroke-width="1"><circle cx="2" cy="2" r="2" stroke="none"/><circle cx="2" cy="2" r="2.5" fill="none"/></g></g></svg>