<svg xmlns="http://www.w3.org/2000/svg" xmlns:xlink="http://www.w3.org/1999/xlink" width="65" height="44" viewBox="0 0 65 44"><defs><radialGradient id="a" cx="0" cy="1" r="1.058" gradientTransform="translate(0 -0.202) scale(1 1.218)" gradientUnits="objectBoundingBox"><stop offset="0" stop-color="#3a8243"/><stop offset="0.512" stop-color="#1b6592"/><stop offset="1" stop-color="#092c66"/></radialGradient></defs><g transform="translate(-148 -1165)"><rect width="65" height="44" rx="10" transform="translate(148 1165)" fill="url(#a)"/><path d="M54.23,53.945a3.626,3.626,0,0,0-3.62-3.626H37.417v7.256H50.61v0A3.626,3.626,0,0,0,54.23,53.945Zm0,7.7a3.626,3.626,0,0,0-3.62-3.626H37.417v7.256H50.61v0A3.626,3.626,0,0,0,54.23,61.641ZM27.476,58.015v-.44h9.687v-.611a6.6,6.6,0,0,0-6.6-6.6H24.411a6.6,6.6,0,0,0-6.6,6.6v1.759a6.6,6.6,0,0,0,6.6,6.6h6.156a6.6,6.6,0,0,0,6.6-6.6v-.708Z" transform="translate(144.478 1129.681)" fill="#fff" fill-rule="evenodd"/></g></svg>