<svg xmlns="http://www.w3.org/2000/svg" xmlns:xlink="http://www.w3.org/1999/xlink" width="89.887" height="35.938" viewBox="0 0 89.887 35.938"><defs><radialGradient id="a" cx="0.5" cy="0.5" r="0.887" gradientTransform="translate(0 -0.752) scale(1 2.503)" gradientUnits="objectBoundingBox"><stop offset="0" stop-color="#209f97"/><stop offset="0.611" stop-color="#c5eef4"/><stop offset="1" stop-color="#fff"/></radialGradient></defs><path d="M-44.257-3.887l13.225-13.85a29.1,29.1,0,0,0,2.294-2.681,9.334,9.334,0,0,0,1.275-2.256,6.213,6.213,0,0,0,.394-2.175,4.35,4.35,0,0,0-1.425-3.45,5.35,5.35,0,0,0-3.662-1.25,7.189,7.189,0,0,0-4.088,1.194,11.465,11.465,0,0,0-3.325,3.794L-44.194-28.5a14.625,14.625,0,0,1,5.206-5.356,14.016,14.016,0,0,1,7.194-1.819,12.909,12.909,0,0,1,6.019,1.331A9.62,9.62,0,0,1-21.8-30.606,10.908,10.908,0,0,1-20.394-25a13.38,13.38,0,0,1-.531,3.906,11.949,11.949,0,0,1-1.769,3.469,34.813,34.813,0,0,1-3.362,3.9l-9.662,9.813Zm0,3.887V-3.887l5.788-2.025h18.787V0Zm27.55-12.375L-4.694-35.15H2.831l-12.3,22.775Zm0,3.963v-3.963l2.512-1.95h25.2v5.913ZM-.082,0V-22.375H6.593V0Zm16.61-21.338,4.688-14.6h7.764l-7.422,14.6Zm16.65,0,4.688-14.6H45.63l-7.422,14.6Z" transform="translate(44.257 35.938)" fill="url(#a)"/></svg>