<svg xmlns="http://www.w3.org/2000/svg" width="23.031" height="32.538" viewBox="0 0 23.031 32.538"><path d="M6.09,32.538a6.067,6.067,0,0,1,0-12.133H7.12l.006-.568c-.2-.084-.425-.183-.669-.308a11.011,11.011,0,0,1-3.148-2.3,13.249,13.249,0,0,1-2.72-4.5A11.3,11.3,0,0,1,.01,8.536,10.122,10.122,0,0,1,.681,5.353,12.192,12.192,0,0,1,1.986,3a10.376,10.376,0,0,1,1.86-1.976,8.954,8.954,0,0,1,1.4-.9A1.091,1.091,0,0,1,5.746,0h11.7a1.091,1.091,0,0,1,.611.187A13.4,13.4,0,0,1,20,1.758a12.3,12.3,0,0,1,1.5,2.159A11.489,11.489,0,0,1,22.441,6a10.327,10.327,0,0,1,.569,2.68,12.779,12.779,0,0,1-.286,3.51,11.1,11.1,0,0,1-1.14,2.771,8.934,8.934,0,0,1-1.25,1.735,13.815,13.815,0,0,1-1.874,1.779,11.532,11.532,0,0,1-2.279,1.42c-.086.039-.18.079-.281.118l0,.394h.948a6.067,6.067,0,1,1,0,12.133Zm-4.4-6.067a4.41,4.41,0,0,0,4.4,4.4H16.845a4.4,4.4,0,1,0,0-8.81H6.09A4.41,4.41,0,0,0,1.685,26.472ZM5.237,2.707a8.084,8.084,0,0,0-1.42,1.482A10.454,10.454,0,0,0,2.724,6.122a7.95,7.95,0,0,0-.533,2.495A9.145,9.145,0,0,0,2.646,12a11.049,11.049,0,0,0,2.27,3.755,8.855,8.855,0,0,0,2.53,1.83,7.52,7.52,0,0,0,1.3.511c.2.062.4.127.628.207a7.76,7.76,0,0,0,2.5.357,10.836,10.836,0,0,0,1.152-.059,17.69,17.69,0,0,0,2.237-.691,9.3,9.3,0,0,0,1.851-1.161,11.738,11.738,0,0,0,1.567-1.49,6.807,6.807,0,0,0,.987-1.362,9.025,9.025,0,0,0,.924-2.219,10.734,10.734,0,0,0,.23-2.856,8.244,8.244,0,0,0-.464-2.138,9.373,9.373,0,0,0-.778-1.7,9.925,9.925,0,0,0-1.208-1.753A9.832,9.832,0,0,0,17.1,2.183H6.026A6.1,6.1,0,0,0,5.237,2.707ZM3.281,26.429a3.5,3.5,0,1,1,3.5,3.541A3.523,3.523,0,0,1,3.281,26.429Zm1.255,0a2.243,2.243,0,1,0,2.242-2.285A2.267,2.267,0,0,0,4.536,26.429Zm8.123-.086a3.5,3.5,0,1,1,3.5,3.541A3.523,3.523,0,0,1,12.659,26.343Zm1.255,0a2.243,2.243,0,1,0,2.242-2.286A2.267,2.267,0,0,0,13.914,26.343ZM11.981,13.868a2.455,2.455,0,1,1,2.455,2.412A2.436,2.436,0,0,1,11.981,13.868Zm1.255,0a1.2,1.2,0,1,0,1.2-1.156A1.18,1.18,0,0,0,13.236,13.868Zm-7.106,0a2.455,2.455,0,1,1,2.455,2.412A2.436,2.436,0,0,1,6.131,13.868Zm1.255,0a1.2,1.2,0,1,0,1.2-1.156A1.18,1.18,0,0,0,7.386,13.868ZM14.648,9.05A2.455,2.455,0,1,1,17.1,11.461,2.436,2.436,0,0,1,14.648,9.05Zm1.255,0a1.2,1.2,0,1,0,1.2-1.156A1.18,1.18,0,0,0,15.9,9.05Zm-6.847,0a2.455,2.455,0,1,1,2.455,2.412A2.436,2.436,0,0,1,9.056,9.05Zm1.255,0a1.2,1.2,0,1,0,1.2-1.156A1.18,1.18,0,0,0,10.311,9.05Zm-6.933,0a2.455,2.455,0,1,1,2.455,2.412A2.436,2.436,0,0,1,3.378,9.05Zm1.255,0a1.2,1.2,0,1,0,1.2-1.156A1.18,1.18,0,0,0,4.633,9.05Zm7.8-3.915a1.962,1.962,0,1,1,1.961,2A1.986,1.986,0,0,1,12.431,5.135Zm1.255,0a.707.707,0,1,0,.706-.749A.73.73,0,0,0,13.686,5.135Zm-6.847,0a1.962,1.962,0,1,1,1.961,2A1.986,1.986,0,0,1,6.839,5.135Zm1.255,0A.707.707,0,1,0,8.8,4.386.729.729,0,0,0,8.094,5.135Z" transform="translate(0 0)"/></svg>