<svg xmlns="http://www.w3.org/2000/svg" width="100.764" height="76.026" viewBox="0 0 100.764 76.026"><g transform="translate(247.878 9.562)" opacity="0.7"><g transform="translate(-244.378 61.525) rotate(-90)"><path d="M0,7.965a34.386,34.386,0,0,1,44.014,0" transform="translate(11.191 15.628)" fill="none" stroke="#00766f" stroke-linecap="round" stroke-linejoin="round" stroke-width="7"/><path d="M0,12.5a50.016,50.016,0,0,1,66.147,0" transform="translate(0)" fill="none" stroke="#00766f" stroke-linecap="round" stroke-linejoin="round" stroke-width="7"/><path d="M0,3.466a18.756,18.756,0,0,1,21.726,0" transform="translate(22.226 31.256)" fill="none" stroke="#00766f" stroke-linecap="round" stroke-linejoin="round" stroke-width="7"/><path d="M0,0H0" transform="translate(33.073 46.882)" fill="none" stroke="#00766f" stroke-linecap="round" stroke-linejoin="round" stroke-width="7"/></g><g transform="translate(-185.336 61.525) rotate(-90)"><path d="M0,0A34.386,34.386,0,0,0,44.014,0" transform="translate(11.191 11.129)" fill="none" stroke="#00766f" stroke-linecap="round" stroke-linejoin="round" stroke-width="7"/><path d="M0,0A50.016,50.016,0,0,0,66.147,0" transform="translate(0 22.226)" fill="none" stroke="#00766f" stroke-linecap="round" stroke-linejoin="round" stroke-width="7"/><path d="M0,0A18.756,18.756,0,0,0,21.726,0" transform="translate(22.226 0)" fill="none" stroke="#00766f" stroke-linecap="round" stroke-linejoin="round" stroke-width="7"/></g></g></svg>