<svg xmlns="http://www.w3.org/2000/svg" width="76.8" height="76.8" viewBox="0 0 76.8 76.8"><path d="M32.4,39A4.2,4.2,0,1,1,24,39a12,12,0,0,1,24,0,4.2,4.2,0,1,1-8.4,0,3.6,3.6,0,0,0-7.2,0ZM36,12.6A26.43,26.43,0,0,0,9.6,39,4.2,4.2,0,1,0,18,39a18,18,0,0,1,36,0c0,11.275-10.651,10.547-10.8,21.543V60.6a7.809,7.809,0,0,1-7.8,7.8,4.2,4.2,0,0,0,0,8.4A16.219,16.219,0,0,0,51.6,60.634C51.689,55.47,62.4,53.4,62.4,39A26.43,26.43,0,0,0,36,12.6ZM24,48a4.8,4.8,0,1,0,4.8,4.8A4.8,4.8,0,0,0,24,48ZM4.8,67.2A4.8,4.8,0,1,0,9.6,72,4.8,4.8,0,0,0,4.8,67.2ZM76.8,39c0-.228,0-.454-.007-.68A41.006,41.006,0,0,0,49.2.227a4.2,4.2,0,1,0-2.716,7.949A32.585,32.585,0,0,1,68.394,38.468V38.5c0,.168,0,.335,0,.5a4.2,4.2,0,0,0,8.4,0ZM22.946,65.854l-12-12L5.855,58.946l12,12Z" transform="translate(0 0)" fill="#00766f" opacity="0.7"/></svg>