<svg xmlns="http://www.w3.org/2000/svg" xmlns:xlink="http://www.w3.org/1999/xlink" width="60.108" height="102" viewBox="0 0 60.108 102"><defs><radialGradient id="a" cx="0.648" cy="0.411" r="1.455" gradientTransform="translate(0 0.182) scale(1 0.635)" gradientUnits="objectBoundingBox"><stop offset="0" stop-color="#00766f"/><stop offset="0.069" stop-color="#54a020"/><stop offset="0.339" stop-color="#00b4cd"/><stop offset="0.645" stop-color="#90e593"/><stop offset="1" stop-color="#baf382"/></radialGradient></defs><path d="M37.277,74.46a1.563,1.563,0,0,0-1.609-2.109H14.552c-1.25,0-1.6-.707-.81-1.625,0,0,43.509-55.217,44.357-56.282.641-1.011,1.348-.658,1.125.505C58.887,16.423,49.6,54.094,49.6,54.094c-.451,1.109.2,1.951,1.435,1.951H72.16c1.245,0,1.641.837.881,1.783,0,0-43.574,56.537-44.357,57.483s-1.516.658-1.12-.951l9.713-39.9" transform="translate(-13.319 -13.85)" opacity="0.4" fill="url(#a)"/></svg>