<svg xmlns="http://www.w3.org/2000/svg" width="76.541" height="107.157" viewBox="0 0 76.541 107.157"><path d="M28.811,46.546V27.462a12.757,12.757,0,1,1,25.514,0V46.546a22.962,22.962,0,1,0-25.514,0ZM79.022,70.172,55.856,58.64a7.186,7.186,0,0,0-2.755-.561H49.222V27.462a7.654,7.654,0,1,0-15.308,0v54.8l-17.5-3.674a8.918,8.918,0,0,0-1.225-.153,5.708,5.708,0,0,0-4.031,1.684L7.125,84.2l25.207,25.207a7.681,7.681,0,0,0,5.409,2.245H72.389a7.432,7.432,0,0,0,7.348-6.531l3.827-26.891a7.334,7.334,0,0,0-4.541-8.062Z" transform="translate(-7.125 -4.5)" fill="#fff"/></svg>