<svg xmlns="http://www.w3.org/2000/svg" width="223.714" height="104.4" viewBox="0 0 223.714 104.4"><g transform="translate(-1.125 -10.125)" opacity="0.6"><path d="M178.232,10.125H23.5A22.437,22.437,0,0,0,1.125,32.5V92.154A22.437,22.437,0,0,0,23.5,114.525H178.232A22.437,22.437,0,0,0,200.6,92.154V32.5A22.437,22.437,0,0,0,178.232,10.125Zm9.321,82.029a9.349,9.349,0,0,1-9.321,9.321H23.5a9.349,9.349,0,0,1-9.321-9.321V32.5A9.349,9.349,0,0,1,23.5,23.175H178.232a9.349,9.349,0,0,1,9.321,9.321Z" transform="translate(0)" fill="#fff"/><path d="M32.625,14.386V62.3c7.457,0,14.914-12.91,14.914-23.956S40.082,14.386,32.625,14.386Z" transform="translate(177.3 23.983)" fill="#fff"/><path d="M153.643,13.5H10.093A5.609,5.609,0,0,0,4.5,19.093V67.564a5.609,5.609,0,0,0,5.593,5.593h143.55a5.609,5.609,0,0,0,5.593-5.593V19.093A5.609,5.609,0,0,0,153.643,13.5Zm-77,54.064,3.915-20.041H67.886l21.066-28.43L85.037,39.134H97.714Z" transform="translate(18.996 18.996)" fill="#fff"/></g></svg>