<svg xmlns="http://www.w3.org/2000/svg" width="59.885" height="79.846" viewBox="0 0 59.885 79.846"><path d="M62.541,22.345H54.224V3.912a3.33,3.33,0,0,0-6.654,0V22.345H20.955V3.912a3.33,3.33,0,0,0-6.654,0V22.345H5.983c-.92,0-1.663,1.446-1.663,2.327v7.986c0,9.58,16.635,20.7,16.635,36.09v5.163h6.654v6.654H40.916V73.912H47.57V68.749c0-15.387,16.635-26.512,16.635-36.09V24.672c0-.882-.744-2.327-1.663-2.327m-30.1,27.261a.478.478,0,0,0-.492-.645H25.489c-.383,0-.491-.216-.248-.5,0,0,13.316-16.9,13.576-17.225.2-.309.413-.2.344.155-.1.451-2.946,11.98-2.946,11.98-.138.339.062.6.439.6H43.12c.381,0,.5.256.269.546,0,0-13.336,17.3-13.576,17.593s-.464.2-.343-.291l2.973-12.211" transform="translate(-4.32 -0.72)" fill="#fff"/></svg>