<svg xmlns="http://www.w3.org/2000/svg" width="33.781" height="79.846" viewBox="0 0 33.781 79.846"><path d="M82.238,21.745H79.167V18.674a6.144,6.144,0,0,0-6.142-6.142H11.6a6.144,6.144,0,0,0-6.142,6.142v21.5A6.144,6.144,0,0,0,11.6,46.313h61.42a6.144,6.144,0,0,0,6.142-6.142V37.1h3.071a3.072,3.072,0,0,0,3.071-3.071V24.816a3.07,3.07,0,0,0-3.071-3.071ZM76.1,40.171a3.072,3.072,0,0,1-3.071,3.071H11.6a3.07,3.07,0,0,1-3.071-3.071v-21.5A3.068,3.068,0,0,1,11.6,15.6h61.42A3.07,3.07,0,0,1,76.1,18.674Zm-64.491,0H30.031v-21.5H11.6Zm21.5,0H51.528v-21.5H33.1Zm21.5,0H73.025v-21.5H54.6v21.5Z" transform="translate(-12.532 85.309) rotate(-90)" fill="#fff"/></svg>