<svg xmlns="http://www.w3.org/2000/svg" width="83.25" height="74" viewBox="0 0 83.25 74"><path d="M48.563,64.75H2.313A2.312,2.312,0,0,0,0,67.063v4.625A2.312,2.312,0,0,0,2.313,74h46.25a2.312,2.312,0,0,0,2.313-2.312V67.063A2.312,2.312,0,0,0,48.563,64.75ZM78.625,18.5V11.563a2.313,2.313,0,0,0-4.625,0V18.5H69.375V11.563a2.313,2.313,0,0,0-4.625,0V18.5H62.438a2.312,2.312,0,0,0-2.312,2.313v4.625a11.523,11.523,0,0,0,8.094,10.974V53.537a4.209,4.209,0,0,1-3.362,4.219,4.053,4.053,0,0,1-4.732-3.991V49.719A12.719,12.719,0,0,0,47.406,37H46.25V9.25A9.249,9.249,0,0,0,37,0H13.875a9.249,9.249,0,0,0-9.25,9.25V60.125H46.25V43.938h1.156a5.782,5.782,0,0,1,5.781,5.781v3.557c0,5.734,4.18,10.863,9.887,11.419A11,11,0,0,0,75.156,53.766V36.412A11.523,11.523,0,0,0,83.25,25.438V20.813A2.312,2.312,0,0,0,80.938,18.5H78.625ZM37.591,25.4,24.049,45.493a1.792,1.792,0,0,1-1.5.757,1.58,1.58,0,0,1-1.687-1.867l3.327-12.008H15.609a1.6,1.6,0,0,1-1.718-1.718L16.2,15.192a1.673,1.673,0,0,1,1.718-1.317H27.75a1.575,1.575,0,0,1,1.677,1.909L27.75,23.125h8.339A1.529,1.529,0,0,1,37.591,25.4Z" fill="#fff" opacity="0.595"/></svg>