<svg xmlns="http://www.w3.org/2000/svg" xmlns:xlink="http://www.w3.org/1999/xlink" width="195.723" height="44.04" viewBox="0 0 195.723 44.04"><defs><linearGradient id="a" x1="0.389" y1="0.878" x2="0.876" y2="-0.042" gradientUnits="objectBoundingBox"><stop offset="0" stop-color="#fff"/><stop offset="0.31" stop-color="#aab6bd"/><stop offset="1" stop-color="#004141"/></linearGradient><linearGradient id="b" x1="0.806" y1="0.676" x2="0.029" y2="-0.097" gradientUnits="objectBoundingBox"><stop offset="0" stop-color="#fff"/><stop offset="0.26" stop-color="#a7afbf"/><stop offset="1" stop-color="#001a30"/></linearGradient><radialGradient id="c" cx="0.118" cy="0.228" r="1.576" gradientTransform="translate(0.059) scale(0.502 1)" gradientUnits="objectBoundingBox"><stop offset="0.07" stop-color="#fff"/><stop offset="0.16" stop-color="#f8faf9"/><stop offset="0.27" stop-color="#e7efeb"/><stop offset="0.41" stop-color="#cbdcd3"/><stop offset="0.55" stop-color="#a3c1b2"/><stop offset="0.71" stop-color="#709f88"/><stop offset="0.87" stop-color="#337655"/><stop offset="1" stop-color="#00542a"/></radialGradient><radialGradient id="d" cx="0.655" cy="0.071" r="0.986" gradientTransform="translate(-0.221) scale(1.337 1)" gradientUnits="objectBoundingBox"><stop offset="0" stop-color="#fff"/><stop offset="0.26" stop-color="#fcfdfc"/><stop offset="0.4" stop-color="#f4f6f5"/><stop offset="0.51" stop-color="#e7ebe8"/><stop offset="0.6" stop-color="#d4dbd6"/><stop offset="0.68" stop-color="#bbc6bf"/><stop offset="0.76" stop-color="#9cada2"/><stop offset="0.83" stop-color="#778f80"/><stop offset="0.9" stop-color="#4d6c58"/><stop offset="0.96" stop-color="#1e452c"/><stop offset="1" stop-color="#002c10"/></radialGradient></defs><path d="M29.434,59.57a14.611,14.611,0,0,1-7.37-2A14.674,14.674,0,0,1,0,44.88a22.018,22.018,0,0,0,43.864,2.748,14.69,14.69,0,0,1-14.43,11.947Z" transform="translate(0 -22.86)" fill="#03a9c5"/><path d="M14.695,44.31a14.611,14.611,0,0,0,7.37-2,14.668,14.668,0,0,1,0-25.4,14.691,14.691,0,1,0-7.37,27.4Z" transform="translate(0 -7.6)" fill="#008782"/><path d="M14.695,7.325a14.611,14.611,0,0,1,7.37,2,14.665,14.665,0,0,1,21.8,9.95A22.018,22.018,0,0,0,0,22.02,14.7,14.7,0,0,1,14.695,7.325Z" fill="#52ae32"/><path d="M52.34,14.93a14.611,14.611,0,0,0-7.37,2,14.668,14.668,0,0,1,0,25.4,14.665,14.665,0,0,0,21.8-9.95,21.382,21.382,0,0,0,0-5.485A14.69,14.69,0,0,0,52.34,14.94Z" transform="translate(-22.906 -7.605)" fill="#a9f571"/><path d="M14.695,44.31a14.611,14.611,0,0,0,7.37-2,14.668,14.668,0,0,1,0-25.4,14.691,14.691,0,1,0-7.37,27.4Z" transform="translate(0 -7.6)" fill="url(#a)" style="mix-blend-mode:multiply;isolation:isolate"/><path d="M29.434,59.57a14.611,14.611,0,0,1-7.37-2A14.674,14.674,0,0,1,0,44.88a22.018,22.018,0,0,0,43.864,2.748,14.69,14.69,0,0,1-14.43,11.947Z" transform="translate(0 -22.86)" fill="url(#b)" style="mix-blend-mode:multiply;isolation:isolate"/><path d="M14.695,7.325a14.611,14.611,0,0,1,7.37,2,14.665,14.665,0,0,1,21.8,9.95A22.018,22.018,0,0,0,0,22.02,14.7,14.7,0,0,1,14.695,7.325Z" opacity="0.73" fill="url(#c)" style="mix-blend-mode:multiply;isolation:isolate"/><path d="M52.34,14.93a14.611,14.611,0,0,0-7.37,2,14.668,14.668,0,0,1,0,25.4,14.665,14.665,0,0,0,21.8-9.95,21.382,21.382,0,0,0,0-5.485A14.69,14.69,0,0,0,52.34,14.94Z" transform="translate(-22.906 -7.605)" opacity="0.73" fill="url(#d)" style="mix-blend-mode:multiply;isolation:isolate"/><g transform="translate(55.156 9.298)"><g transform="translate(0.007)"><path d="M128.35,35.95a3.958,3.958,0,0,0-4.034-3.86h-18.2a1.347,1.347,0,0,0-1.35,1.35V49.227a1.347,1.347,0,0,0,1.35,1.35h18.2a3.963,3.963,0,0,0,4.034-3.86V35.957Zm-2.7,9.41a2.588,2.588,0,0,1-2.685,2.51h-15.5V34.782h15.5a2.588,2.588,0,0,1,2.685,2.51V45.36Z" transform="translate(-104.77 -32.084)"/><path d="M288.161,32.09a1.855,1.855,0,0,0-1.038.493l-9.512,9.309-9.577-9.4a1.349,1.349,0,0,0-2.314.943V49.227a1.35,1.35,0,1,0,2.7,0V36.654l8.228,8.075a1.351,1.351,0,0,0,1.908.015l8.249-8.075V49.227a1.349,1.349,0,1,0,2.7,0V33.44a1.347,1.347,0,0,0-1.349-1.35" transform="translate(-148.943 -32.084)"/><path d="M249.561,48.623,239,32.755a1.349,1.349,0,0,0-2.336,1.35l3.94,5.92h-7.945a1.082,1.082,0,0,0-.152.015,1.341,1.341,0,0,0-1.139.668l-5.209,7.872a1.349,1.349,0,0,0,2.336,1.35l4.767-7.2h9.127l4.825,7.248a1.349,1.349,0,1,0,2.336-1.35" transform="translate(-138.037 -32.082)"/><path d="M188.03,41.377V49.22a1.248,1.248,0,0,0,.109.522,1.344,1.344,0,0,0,1.241.827h20.881a1.35,1.35,0,0,0,0-2.7H190.729V42.727h13.292a1.35,1.35,0,1,0,0-2.7H189.38a1.247,1.247,0,0,0-.522.109,1.338,1.338,0,0,0-.82,1.241m23.58-7.937a1.347,1.347,0,0,0-1.349-1.35H189.387a1.35,1.35,0,1,0,0,2.7h20.881a1.347,1.347,0,0,0,1.349-1.35" transform="translate(-127.621 -32.084)"/><path d="M170.17,43.887a3.713,3.713,0,0,0-1-2.51,3.726,3.726,0,0,0,1-2.51V35.95a3.958,3.958,0,0,0-4.034-3.86h-18.2a1.35,1.35,0,0,0,0,2.7h16.854a2.588,2.588,0,0,1,2.685,2.51v.218a2.588,2.588,0,0,1-2.685,2.51H147.94a1.347,1.347,0,0,0-1.35,1.35v7.814a1.371,1.371,0,1,0,2.743,0V42.719h15.447a2.646,2.646,0,0,1,2.634,2.01v4.455a1.371,1.371,0,0,0,2.743,0v-5.3Z" transform="translate(-116.248 -32.084)"/></g><g transform="translate(0 23.876)"><path d="M104.76,71.712V65.8a.626.626,0,0,1,.638-.638h4.179a.566.566,0,0,1,0,1.132H106.03v1.865h3.091a.573.573,0,0,1,.566.573.55.55,0,0,1-.566.551H106.03v1.93h3.6a.566.566,0,1,1,0,1.132H105.4a.626.626,0,0,1-.638-.638Z" transform="translate(-104.76 -65.037)"/><path d="M125.27,65.736a.635.635,0,0,1,.638-.638h.131a.81.81,0,0,1,.66.37l3.591,4.651V65.707a.616.616,0,0,1,.617-.617.622.622,0,0,1,.624.617v6.037a.613.613,0,0,1-.617.624h-.051a.81.81,0,0,1-.66-.377l-3.693-4.781v4.556a.616.616,0,0,1-.617.617.622.622,0,0,1-.624-.617V65.743Z" transform="translate(-110.389 -65.017)"/><path d="M147.48,71.712V65.8a.626.626,0,0,1,.638-.638H152.3a.566.566,0,1,1,0,1.132h-3.555v1.865h3.091a.573.573,0,0,1,.566.573.55.55,0,0,1-.566.551h-3.091v1.93h3.606a.566.566,0,0,1,0,1.132h-4.23a.626.626,0,0,1-.638-.638Z" transform="translate(-116.485 -65.037)"/><path d="M167.99,65.8a.626.626,0,0,1,.638-.638H171.2a2.917,2.917,0,0,1,2.075.718,2.183,2.183,0,0,1,.595,1.553v.022a2.132,2.132,0,0,1-1.633,2.148l1.379,1.734a.733.733,0,0,1,.2.486.6.6,0,0,1-.6.588.718.718,0,0,1-.617-.326l-1.749-2.227H169.26v1.93a.619.619,0,0,1-.624.624.632.632,0,0,1-.639-.624V65.813Zm3.113,2.924c.907,0,1.48-.472,1.48-1.2V67.5c0-.769-.551-1.19-1.487-1.19H169.26v2.409h1.85Z" transform="translate(-122.114 -65.037)"/><path d="M188.81,68.727V68.7a3.661,3.661,0,0,1,3.708-3.715,3.884,3.884,0,0,1,2.452.726.645.645,0,0,1,.254.515.624.624,0,0,1-.624.624.656.656,0,0,1-.392-.145,2.72,2.72,0,0,0-1.741-.566,2.432,2.432,0,0,0-2.329,2.532V68.7a2.4,2.4,0,0,0,2.445,2.568,2.954,2.954,0,0,0,1.734-.544V69.38H192.9a.548.548,0,1,1,0-1.1h2a.626.626,0,0,1,.638.638v1.915a.863.863,0,0,1-.443.8,4.559,4.559,0,0,1-2.554.784,3.562,3.562,0,0,1-3.722-3.693Z" transform="translate(-127.828 -64.99)"/><path d="M212.879,69.538l-2.474-3.4a.8.8,0,0,1-.145-.443.61.61,0,0,1,.638-.6.728.728,0,0,1,.617.377l2,2.888,2.032-2.895a.724.724,0,0,1,.6-.377.6.6,0,0,1,.617.617.749.749,0,0,1-.174.45l-2.452,3.359v2.249a.623.623,0,0,1-.639.624.61.61,0,0,1-.624-.624v-2.22Z" transform="translate(-133.715 -65.017)"/></g></g></svg>