<svg xmlns="http://www.w3.org/2000/svg" width="159.509" height="25.379" viewBox="0 0 159.509 25.379"><g transform="translate(-6.686 -9.254)"><path d="M196.226,10.144v4.75a18.933,18.933,0,0,0-6.57-1.4,5.263,5.263,0,0,0-2.721.617,1.781,1.781,0,0,0-1.027,1.511c0,.792.768,1.5,2.314,2.128l4.466,2.174c3.611,1.721,5.4,4.007,5.4,6.878a6.709,6.709,0,0,1-2.868,5.7,12.513,12.513,0,0,1-7.657,2.128,35.526,35.526,0,0,1-3.969-.2,30.645,30.645,0,0,1-4.021-.757V28.708a23.616,23.616,0,0,0,7.5,1.4c2.686,0,4.021-.778,4.021-2.349,0-.782-.547-1.413-1.658-1.907l-4.961-2.114a10.212,10.212,0,0,1-4.081-3.018,6.829,6.829,0,0,1-1.322-4.144,6.3,6.3,0,0,1,2.756-5.315,12.239,12.239,0,0,1,7.334-2.005,27.271,27.271,0,0,1,3.39.249c1.273.172,2.5.382,3.674.642Z" transform="translate(-31.896)" fill="#099" fill-rule="evenodd"/><path d="M23.83,10.144v4.75a18.916,18.916,0,0,0-6.566-1.4,5.254,5.254,0,0,0-2.721.617,1.781,1.781,0,0,0-1.027,1.511c0,.792.778,1.5,2.324,2.128l4.466,2.174C23.9,21.647,25.7,23.933,25.7,26.8a6.734,6.734,0,0,1-2.857,5.7,12.554,12.554,0,0,1-7.667,2.128,35.593,35.593,0,0,1-3.972-.2,30.922,30.922,0,0,1-4.018-.757V28.708a23.717,23.717,0,0,0,7.492,1.4c2.685,0,4.021-.778,4.021-2.349,0-.782-.543-1.413-1.644-1.907l-4.961-2.114a10.015,10.015,0,0,1-4.081-3.018,6.742,6.742,0,0,1-1.325-4.144,6.279,6.279,0,0,1,2.759-5.315,12.175,12.175,0,0,1,7.324-2.005,27.472,27.472,0,0,1,3.4.249c1.262.172,2.486.382,3.66.642Z" transform="translate(0)" fill="#099" fill-rule="evenodd"/><path d="M34,9.8h7.275V34.289H34Z" transform="translate(-5.054 -0.101)" fill="#099" fill-rule="evenodd"/><path d="M67.643,9.8v4.526H56.835v5.43h9.375v4.081H56.835v5.7H67.864v4.75H49.834V9.8Z" transform="translate(-7.983 -0.101)" fill="#099" fill-rule="evenodd"/><path d="M106.611,9.8V34.289H99.82V18.137L92.773,34.513H88.58L81.8,18.137V34.289H76.892V9.8h8.88l6.062,14.991L98.176,9.8Z" transform="translate(-12.99 -0.101)" fill="#099" fill-rule="evenodd"/><path d="M138.06,9.8v4.526H127.31v5.43h9.375v4.081H127.31v5.7h10.97v4.75H120.25V9.8Z" transform="translate(-21.012 -0.101)" fill="#099" fill-rule="evenodd"/><path d="M168.592,9.8V34.289h-7.716l-8.659-15.706V34.289h-4.909V9.8h7.941l8.435,15.436V9.8Z" transform="translate(-26.019 -0.101)" fill="#099" fill-rule="evenodd"/></g></svg>