<svg xmlns="http://www.w3.org/2000/svg" width="23.031" height="20.707" viewBox="0 0 23.031 20.707"><path d="M8.653,20.229c-.2-.071-.386-.128-.562-.183A9.718,9.718,0,0,1,6.456,19.4a11.008,11.008,0,0,1-3.148-2.285,13.143,13.143,0,0,1-2.72-4.475A11.161,11.161,0,0,1,.01,8.481,10,10,0,0,1,.681,5.319a12.09,12.09,0,0,1,1.3-2.337,10.342,10.342,0,0,1,1.86-1.963,8.951,8.951,0,0,1,1.4-.9A1.1,1.1,0,0,1,5.746,0h11.7a1.1,1.1,0,0,1,.611.186A13.376,13.376,0,0,1,20,1.747a12.217,12.217,0,0,1,1.5,2.145,11.37,11.37,0,0,1,.943,2.068,10.2,10.2,0,0,1,.569,2.663,12.611,12.611,0,0,1-.286,3.488,11.014,11.014,0,0,1-1.14,2.753,8.883,8.883,0,0,1-1.25,1.724,13.8,13.8,0,0,1-1.874,1.768,11.55,11.55,0,0,1-2.279,1.411,20.059,20.059,0,0,1-2.69.837,1.042,1.042,0,0,1-.115.022,12.387,12.387,0,0,1-1.494.084A9.851,9.851,0,0,1,8.653,20.229ZM5.237,2.689a8.043,8.043,0,0,0-1.42,1.472A10.372,10.372,0,0,0,2.724,6.082a7.856,7.856,0,0,0-.533,2.479,9.03,9.03,0,0,0,.455,3.36,10.962,10.962,0,0,0,2.27,3.731A8.848,8.848,0,0,0,7.445,17.47a7.562,7.562,0,0,0,1.3.507c.2.062.4.126.628.205a7.806,7.806,0,0,0,2.5.355,10.849,10.849,0,0,0,1.152-.059,17.763,17.763,0,0,0,2.237-.686,9.3,9.3,0,0,0,1.851-1.154,11.7,11.7,0,0,0,1.567-1.48,6.773,6.773,0,0,0,.987-1.353,8.938,8.938,0,0,0,.924-2.2,10.6,10.6,0,0,0,.23-2.838,8.13,8.13,0,0,0-.463-2.124,9.287,9.287,0,0,0-.778-1.694A9.877,9.877,0,0,0,18.382,3.2,9.791,9.791,0,0,0,17.1,2.169H6.026A6.089,6.089,0,0,0,5.237,2.689Zm6.744,11.089a2.455,2.455,0,1,1,2.454,2.4A2.428,2.428,0,0,1,11.981,13.778Zm1.255,0a1.2,1.2,0,1,0,1.2-1.149A1.176,1.176,0,0,0,13.236,13.778Zm-7.105,0a2.455,2.455,0,1,1,2.455,2.4A2.428,2.428,0,0,1,6.131,13.778Zm1.255,0a1.2,1.2,0,1,0,1.2-1.149A1.176,1.176,0,0,0,7.386,13.778Zm7.262-4.787a2.455,2.455,0,1,1,2.455,2.4A2.429,2.429,0,0,1,14.648,8.991Zm1.255,0a1.2,1.2,0,1,0,1.2-1.149A1.176,1.176,0,0,0,15.9,8.991Zm-6.848,0a2.455,2.455,0,1,1,2.455,2.4A2.429,2.429,0,0,1,9.056,8.991Zm1.255,0a1.2,1.2,0,1,0,1.2-1.149A1.176,1.176,0,0,0,10.311,8.991Zm-6.934,0a2.455,2.455,0,1,1,2.454,2.4A2.429,2.429,0,0,1,3.378,8.991Zm1.255,0a1.2,1.2,0,1,0,1.2-1.149A1.176,1.176,0,0,0,4.633,8.991Zm7.8-3.889a1.962,1.962,0,1,1,1.961,1.991A1.979,1.979,0,0,1,12.431,5.1Zm1.255,0a.707.707,0,1,0,.706-.745A.727.727,0,0,0,13.686,5.1Zm-6.847,0A1.961,1.961,0,1,1,8.8,7.094,1.979,1.979,0,0,1,6.839,5.1Zm1.255,0A.707.707,0,1,0,8.8,4.358.727.727,0,0,0,8.094,5.1Z" transform="translate(0 0)"/></svg>